/* XPM */
static char *c7109a90aa6c4023c9a0f523d0e720f20InQp9QMrrHiAfKI[] = {
/* columns rows colors chars-per-pixel */
"64 64 147 2 ",
"   c #260368",
".  c #29056C",
"X  c #300E6F",
"o  c #2C0772",
"O  c #2F0876",
"+  c #2F0978",
"@  c #320F72",
"#  c #320A7C",
"$  c #36107F",
"%  c #350C82",
"&  c #390F87",
"*  c #390F88",
"=  c #371081",
"-  c #391186",
";  c #3A1189",
":  c #3F1292",
">  c #411496",
",  c #44159C",
"<  c #4716A0",
"1  c #4718A3",
"2  c #4919A4",
"3  c #4C1AAB",
"4  c #511BAD",
"5  c #521DB3",
"6  c #561FB8",
"7  c #581FB9",
"8  c #5620B9",
"9  c #5C22BF",
"0  c #5A21BD",
"q  c #551CC5",
"w  c #5D21C1",
"e  c #5C22C0",
"r  c #5D22C0",
"t  c #5C23C0",
"y  c #5C22C1",
"u  c #5D22C1",
"i  c #5C23C1",
"p  c #5D23C1",
"a  c #5E23C1",
"s  c #5E23C2",
"d  c #5F23C2",
"f  c #5E24C2",
"g  c #5E24C3",
"h  c #5F24C3",
"j  c #5F25C3",
"k  c #5E24C4",
"l  c #5F24C4",
"z  c #6025C3",
"x  c #6024C4",
"c  c #6124C4",
"v  c #6025C4",
"b  c #6125C4",
"n  c #6125C5",
"m  c #6224C5",
"M  c #6225C5",
"N  c #6226C5",
"B  c #6125C6",
"V  c #6225C6",
"C  c #6326C7",
"Z  c #6526C7",
"A  c #6527C7",
"S  c #6426C8",
"D  c #6526C8",
"F  c #6527C8",
"G  c #6626C8",
"H  c #6726C8",
"J  c #6626C9",
"K  c #6727C9",
"L  c #6827C9",
"P  c #6828CB",
"I  c #6829CB",
"U  c #6929CB",
"Y  c #6928CA",
"T  c #6A28CB",
"R  c #6A29CB",
"E  c #6A29CC",
"W  c #6B29CC",
"Q  c #6B2ACC",
"!  c #6C29CD",
"~  c #6D2ACD",
"^  c #6D2BCD",
"/  c #6E2ACD",
"(  c #6D2ACE",
")  c #6D2BCE",
"_  c #6E2ACE",
"`  c #6E2BCE",
"'  c #6E2ACF",
"]  c #6F2BCF",
"[  c #6F2CCF",
"{  c #702BCF",
"}  c #702CD0",
"|  c #722DD1",
" . c #732CD2",
".. c #732DD2",
"X. c #732DD3",
"o. c #722DD2",
"O. c #742DD3",
"+. c #752ED2",
"@. c #752DD4",
"#. c #752ED4",
"$. c #762ED5",
"%. c #772ED5",
"&. c #772FD5",
"*. c #772FD6",
"=. c #782FD6",
"-. c #792FD7",
";. c #7730D6",
":. c #7830D6",
">. c #7930D7",
",. c #7B30D7",
"<. c #7A31D7",
"1. c #7A31D8",
"2. c #7B31D8",
"3. c #7C32D9",
"4. c #7D32D9",
"5. c #7E32D9",
"6. c #7D32DA",
"7. c #7E32DA",
"8. c #7E33DA",
"9. c #7D3EF1",
"0. c #8033DB",
"q. c #8034DB",
"w. c #8134DC",
"e. c #8234DC",
"r. c #8335DD",
"t. c #8436DE",
"y. c #8234DD",
"u. c #8736E0",
"i. c #8738E0",
"p. c #8D3AE3",
"a. c #933EE7",
"s. c #933FE8",
"d. c #9441E7",
"f. c #9742E9",
"g. c #9944EA",
"h. c #9D49EB",
"j. c #A14EED",
"k. c #A653EE",
"l. c #A856EF",
"z. c #AA59EF",
"x. c #AD5CF0",
"c. c #B05FF1",
"v. c #9864F5",
"b. c #B363F2",
"n. c #B768F3",
"m. c #B96AF3",
"M. c #F9D6FF",
/* pixels */
". . . .   . . . . .   . . . . .   . . . . . .   . . . . . . . . . .   . . . . .   . . . . . . . . . . .     . . . . . . . .   . ",
"                                                                                                                                ",
"                                                                                                                                ",
"                                                                                                                                ",
"                                                                                                                                ",
"                                                                                                                                ",
"                      .         .                                                 .           .           .         M.          ",
"  .   .       .                       .                     .     .   .             .                         .     .           ",
". . . . . . .   M.. . . . . . . . . .   . . . . . . .   .   . . . . . . . .   .   .   .   . . . . . . .   .   . . . . . . . . . ",
"o . o o o . . o . . . . . . . . . . . o o . o . . . . o . o . . . . .   . . . o o . o . o . . . . . . . . o . . . . . . . . . . ",
"o o o o o o o o X . O . o o O o o o o o o o o o o o o o o o o o . O X . o o o M.o o o o o o o o o o o o O o o o X o o o o o o o ",
"# O + o # o O # O O O O O O O O # o # o o O O O O O O O O O + + O O O @ O O O O O o # o O O O O o # O + O O O O X O O O O O O O ",
"# % # # # # # # # # # # # # # # # # # # # + # # # # # # # # # # # # # # # # # # # # # # # # # # # # # # # # # # # # # # # # # # ",
"% % % % % % % % % % % % % % % % % % % % % % % % % % % % % % % % % % % # % % % % % % % % % % % % % % % % % % % % % % % % % % % % ",
"* * * * * * * & & * & * * * * * * * & & * * * * * * * * * * - ; * & & & * & & % * * * * * * * * * & * * % & * * * * * * * & & & ",
": : * : * > * * > * : * : * : * * : * : * : : * : * : * * : ; ; > & * > * > * > * : * : * : * : * : * : > * > * * > * * > * > * ",
": : : : : : : : : : : : : : : : : : : : : : : : : : : : : : : : : : : : : : : : : : : : : : : : : : : : : : : : : : : : : : : : ",
", , , : > , > : , : : : : , : : , : > : : > > > : M., : > > > > : : : , , : , : : , : : : : , : , : : , > : > > > > > > > > > > ",
", : , , , , > > , , : , , , , , , > , , , > , , : , , , , > , , , , , : , , , : < : : < < : : , , > , , > , , > , , > , , > , > ",
", , , , , , , , , , , , , , , , , , , , , , , , , , , , , , , , , , , , , , < : < 1 1 : < < < : , , , , , , , , , , , , , , , < ",
", < < , < , < < < , < < , < , , 2 , 1 , , , 1 , < , < < < < : < 1 1 , , < : 1 < < , < , , < < < , < < < , , < < , 1 1 , , < < , ",
"< < < < < < < < < < 1 , < < < < , , 2 , 1 , , 1 < < < < < 1 1 < 1 , < 1 < 1 1 < < < < < < < < < < < < < < < < < < , 1 , < < < < ",
"M.2 2 2 1 2 1 1 2 2 < < 1 1 < < 2 2 1 2 1 2 2 1 , < 1 1 1 1 1 1 1 2 1 1 2 2 2 2 2 2 1 1 1 1 1 1 < 2 < 2 2 1 2 2 1 1 1 1 2 < 1 1 ",
"3 2 3 2 2 2 2 1 2 2 2 < 3 3 3 1 2 2 3 2 2 2 2 2 3 1 3 3 1 1 1 3 2 2 2 2 2 2 2 2 2 2 2 2 3 2 2 2 2 2 2 2 2 2 2 2 2 2 2 1 3 3 2 2 ",
"3 3 3 3 3 3 3 2 3 3 3 2 3 3 3 3 4 3 2 2 3 3 2 3 3 3 3 2 3 3 3 3 3 3 3 3 2 3 3 3 3 3 1 3 2 3 3 3 3 3 3 3 3 3 3 3 3 3 2 3 2 4 3 2 ",
"3 4 5 3 5 3 3 3 3 3 4 3 3 3 3 3 4 3 4 3 4 3 3 3 3 3 3 3 3 3 3 3 4 3 3 3 3 3 3 3 3 3 3 4 3 3 3 3 3 3 3 3 3 3 3 3 4 3 4 4 3 3 4 3 ",
"5 5 5 5 5 3 4 5 5 4 5 5 4 5 5 4 3 5 5 5 3 4 5 3 5 5 5 5 4 4 5 4 8 3 8 3 3 5 8 3 4 5 5 3 5 5 4 5 5 3 3 5 3 5 5 M.4 5 5 5 5 5 5 5 ",
"7 5 5 5 6 5 6 5 6 5 5 8 5 6 5 5 5 5 5 8 6 5 6 6 5 5 5 5 6 4 6 5 4 8 5 5 5 5 5 8 5 5 6 6 5 6 5 5 5 6 5 5 5 6 5 6 5 5 5 5 5 5 5 5 ",
"7 7 8 8 8 8 8 8 8 6 5 8 8 M.8 8 8 8 8 8 7 7 8 8 6 6 7 7 6 6 7 6 7 8 8 8 8 8 8 8 7 7 5 7 5 8 0 5 7 7 6 6 8 5 8 8 6 6 6 7 6 7 7 6 ",
"w 7 0 0 0 0 0 0 8 8 0 0 0 0 0 0 0 0 0 8 8 0 0 0 8 q 0 0 0 8 0 0 0 8 0 0 0 0 8 0 8 0 0 0 0 0 0 0 8 0 8 0 0 0 0 0 6 0 6 t q 8 0 0 ",
"w w w 9 0 9 0 9 0 0 0 w 0 0 0 9 0 0 9 0 0 0 t 0 0 t 0 0 0 0 t 0 0 0 0 0 0 0 0 t 0 9 9 0 0 0 9 9 9 q 0 t 0 0 0 0 t q t 7 0 0 0 0 ",
"l w f f 9 f w w w f w w w f w w f w f w w w w t t w w w t t * ; ; ; X X @ w w t w w 9 w f w w w 9 w t t f w w 9 f w w t t t t i ",
"x n n n z z z f x x x n l n w l j j k j j j j j j j j j ; ; ; ; ; ; ; X X X X f l l w l l l l l l l l l f f f l l f l l l l f l ",
"G Z G n n n n Z n n n n n B n n l l j j j F j j j j j ; ; - ; ; ; ; ; ; X X o @ n n n B B n n n n n l l n n n n B n n n n n n l ",
"I U G L L L L Z G G G G G G G G I K I I I j F F I I ; - ; ; ; ; ; ; ; - X X X X X G Z Z G G G G G G K G Z G Z Z G G G L G G G G ",
"{ { ` ` ` I U U U U I I I I I P I I I I I Q I I I - ; ; ; ; ; ; ; ; ; ; ; X X X X U U U I I I I I I I I U U U U I I I I I I I I ",
" . . .{ { { { { ` I ` ` ` ` ` ' ) I )  .) ) ) ) - ; ; - ; ; ; ; ; ; ; ; ; X X X X X ` ` ' ` ` ^ ` ` ` ` ` ` / / / ` / ` ` ` ` ` ",
"2.:.:.:.*.*. . . .*. .*. . . . .X.X. ...o.;.; ; ; ; ; ; ; ; ; ; ; ; ; ; ; ; X X X X X .................... . . . .......X.......",
"e.6.6.2.2.:.:.=.:.=.*.*.*.=.=.%.;.*.*.*.;.; ; ; ; ; ; ; ; ; ; ; ; ; ; ; ; ; X X X X X X ;.:.;.;.*.*.;.:.*.*.;.=.*.*.:.=.;.:.*.*.",
"w.t.e.e.0.0.0.6.6.6.6.6.7.7.7.7.6.6.6.6.; ; ; - ; ; ; ; ; ; ; ; ; ; ; ; ; ; ; X X X X X 6.6.3.3.6.6.6.2.6.6.2.6.6.2.6.2.6.2.6.6.",
"i.i.t.t.t.t.t.t.t.t.t.e.e.e.t.e.e.w.t.; ; ; ; ; ; ; ; ; ; ; ; ; ; ; ; ; ; ; ; @ X X X X X t.t.t.e.0.e.e.e.e.0.0.e.e.e.e.e.e.e.e.",
"p.p.p.i.p.u.u.t.u.u.u.u.u.u.u.u.u.t.t.; ; - ; ; ; ; - ; ; ; ; ; - ; ; ; ; - ; - X X X X X X t.t.u.u.u.u.u.u.u.u.u.t.u.t.u.u.u.u.",
"d.a.p.p.p.i.a.p.p.u.p.u.p.u.p.u.p.p.; ; ; - ; ; ; ; - ; ; - ; ; ; ; ; - ; ; ; ; X X X X X X X i.p.p.p.p.p.p.p.p.p.p.u.u.p.u.u.p.",
"g.d.d.a.a.a.a.p.p.p.a.a.p.a.p.a.p.; ; ; ; ; ; ; ; ; ; ; ; ; ; ; ; - ; - ; ; ; ; - X X X X X X d.p.p.p.p.p.p.a.p.a.p.a.a.p.a.p.a.",
"h.g.g.f.f.f.s.d.d.a.a.a.a.a.a.a.; ; ; ; ; ; ; ; ; ; ; ; ; ; ; ; ; ; ; ; ; ; ; ; ; $ X X X X X X a.a.s.a.s.s.s.a.a.s.s.s.a.s.s.s.",
"j.j.h.h.g.g.g.g.g.g.g.f.f.f.g.; ; ; ; ; ; ; ; ; ; ; ; ; ; ; ; ; ; ; ; ; ; - - ; ; - X X X X X X O s.a.j.s.s.s.j.g.s.g.s.s.g.g.g.",
"l.k.k.j.j.h.h.h.h.h.h.h.h.h.; ; ; ; ; - ; ; - ; ; - ; ; - ; ; ; ; - ; ; ; ; ; ; ; - @ X X X X X X X j.s.h.h.g.j.j.g.g.h.j.g.h.9.",
"9.z.l.l.k.k.k.k.j.k.j.j.j.; ; ; ; - ; ; ; ; ; ; ; ; ; ; ; ; - ; ; ; ; ; ; ; ; ; ; ; $ X X X X X X X @ j.j.j.j.v.v.j.j.j.j.j.9.9.",
"9.9.c.z.z.z.z.z.z.l.l.l.; ; ; ; ; ; ; ; ; ; ; - ; ; ; ; ; ; ; ; ; ; ; - ; ; ; ; ; ; - X X X X X X X X l.k.l.v.v.v.k.k.l.l.9.9.9.",
"9.9.b.b.b.c.c.c.z.c.z.c.; ; ; ; - ; ; ; ; ; ; ; ; ; ; ; ; ; ; ; ; ; ; ; ; ; ; ; ; ; ; $ X X X X X X X X x.v.v.v.v.v.x.x.9.9.9.9.",
"9.9.9.n.n.n.4 b.n.b.b.; ; ; ; ; ; ; ; ; - ; ; ; ; ; ; ; - ; ; ; ; ; ; ; ; ; ; ; ; ; ; - X X X X X X X X X v.v.v.v.v.c.b.9.9.9.9.",
"9.9.9.9.m.4 4 4 n.n.; ; - ; ; ; ; ; ; ; ; ; ; ; ; ; ; - ; ; ; ; ; ; ; ; ; ; ; ; ; ; ; - $ X X X X X X X X X v.v.v.v.v.p.9.9.9.9.",
"9.9.9.9.4 4 4 4 4 ; ; ; ; ; ; ; ; ; ; ; ; - ; ; ; ; ; ; - ; ; ; - ; ; ; ; ; ; ; ; ; ; ; - X X X X X X X X X v.v.v.v.9.9.9.9.9.9.",
"9.9.9.9.4 4 4 4 ; ; ; ; ; ; ; ; ; ; ; ; ; ; ; ; ; ; ; ; ; ; ; ; ; ; ; ; ; - ; ; ; - ; ; - X X X X X X X X X X v.v.9.9.9.9.9.9.9.",
"9.9.4 4 4 4 4 4 - - ; ; ; ; ; - ; ; ; ; ; ; ; ; ; ; ; ; ; ; - - ; ; ; ; * q ; ; ; - ; ; ; X X X X X X X X X X v.v.9.9.9.9.9.9.9.",
"q 9.4 4 4 4 4 ; ; - ; ; ; ; ; q ; ; ; ; ; ; ; ; - ; ; ; ; ; - ; ; ; - ; q q y ; ; ; ; ; ; - X X X X X X X X X X 9.9.9.9.9.9.9.9.",
"q q 4 4 4 4 ; ; ; ; ; ; ; ; y q ; ; ; ; ; ; - ; ; - ; ; ; ; ; ; ; ; ; ; q q q ; ; ; ; ; ; ; X X X X X X X X X X 9.9.9.9.9.9.9.y ",
"q q 4 4 4 3 ; - ; ; ; ; ; - q q ; - ; ; - ; ; ; ; ; ; ; ; ; q q ; ; ; ; q q q ; ; ; ; ; ; ; X X X X X X X X X X o 9.9.9.9.9.9.q ",
"q q 4 4 4 ; ; ; ; - ; ; ; q q q q ; ; ; ; ; ; ; ; ; ; ; ; - q q ; ; ; q q q q q ; ; ; ; ; ; - X X X X X X X X X @ ; 9.9.9.9.9.q ",
"q q q 4 ; ; ; ; ; ; ; ; ; q q q q ; ; ; ; ; ; ; ; ; - - ; ; q q ; - ; q q q q q ; ; ; ; ; - - X X X X X X X X X o X 9.9.9.9.q q ",
"q q q q ; ; ; q q ; ; ; q q q q q ; ; ; q q ; ; ; ; ; - ; q q q ; - q q q q q q ; ; q ; ; ; - X q q X X X X q X X X 9.9.9.9.q q ",
"q q q q ; ; ; q q ; ; q q q q q q - ; q q q ; ; ; q ; ; q q q q q ; q q q q q q q q q q ; ; ; q q q q X X X q q X X X 9.9.q q q ",
"q q q q ; ; q q q q ; q q q q q q q q q q q q ; q q ; ; q q q q q ; q q q q q q q q q q ; - q q q q q X X q q q X X q q 9.q q q ",
"q q q q q q q q q q q q q q q q q q q q q q q q q q q q q q q q q q q q q q q q q q q q ; q q q q q q q q q q q q q q q q q q q "
};
