/* XPM */
static char *c07205c623014e9bb270bafc03f7affe95yOj8TKlNMtzUCV[] = {
/* columns rows colors chars-per-pixel */
"64 64 136 2 ",
"   c #260368",
".  c #29056C",
"X  c #2C0772",
"o  c #2F0876",
"O  c #2F0978",
"+  c #320A7C",
"@  c #350C82",
"#  c #390F87",
"$  c #390F88",
"%  c #3C108E",
"&  c #3F1292",
"*  c #411496",
"=  c #44159C",
"-  c #4716A0",
";  c #4919A4",
":  c #4D1AAB",
">  c #501BAE",
",  c #521DB3",
"<  c #561FB8",
"1  c #581FB9",
"2  c #5620B9",
"3  c #5A21BD",
"4  c #551CC5",
"5  c #5E23C2",
"6  c #6225C5",
"7  c #6224C5",
"8  c #6226C5",
"9  c #6125C6",
"0  c #6225C6",
"q  c #6326C7",
"w  c #6125C5",
"e  c #6526C7",
"r  c #6527C7",
"t  c #6025C3",
"y  c #6526C8",
"u  c #6527C8",
"i  c #6626C8",
"p  c #6626C9",
"a  c #6727C9",
"s  c #6827C9",
"d  c #6828CB",
"f  c #6829CB",
"g  c #6929CB",
"h  c #6928CA",
"j  c #6A29CB",
"k  c #6B29CC",
"l  c #6B2ACC",
"z  c #6C29CD",
"x  c #6D2BCD",
"c  c #6E2BCE",
"v  c #6F2CCF",
"b  c #6E2ACE",
"n  c #702BCF",
"m  c #742DD3",
"M  c #792FD7",
"N  c #7730D6",
"B  c #7830D6",
"V  c #7D32D9",
"C  c #7D3EED",
"Z  c #7C3DF0",
"A  c #8234DD",
"S  c #8636E0",
"D  c #8738E0",
"F  c #8D3AE3",
"G  c #933EE7",
"H  c #933FE8",
"J  c #8544EE",
"K  c #9441E7",
"L  c #9743E9",
"P  c #9944EA",
"I  c #9D48EB",
"U  c #A14EED",
"Y  c #A754EE",
"T  c #A856EF",
"R  c #AA59EF",
"E  c #AD5CF0",
"W  c #B05FF1",
"Q  c #9864F5",
"!  c #B363F2",
"~  c #B768F3",
"^  c #BB6CF4",
"/  c #BE71F5",
"(  c #C175F6",
")  c #C87EF7",
"_  c #C87FF7",
"`  c #C97FF7",
"'  c #C980F7",
"]  c #CA81F7",
"[  c #CA82F7",
"{  c #CB83F7",
"}  c #CB82F7",
"|  c #CC84F7",
" . c #CD86F7",
".. c #CE88F7",
"X. c #CF89F7",
"o. c #CF8AF7",
"O. c #D08BF7",
"+. c #D08CF7",
"@. c #D18CF7",
"#. c #D18DF8",
"$. c #D28FF8",
"%. c #D390F8",
"&. c #D391F8",
"*. c #D493F8",
"=. c #D491F8",
"-. c #D594F8",
";. c #D695F8",
":. c #D696F8",
">. c #D797F8",
",. c #D899F8",
"<. c #D99BF8",
"1. c #DA9CF8",
"2. c #DC9FF8",
"3. c #DDA1F8",
"4. c #DEA2F8",
"5. c #DFA3F8",
"6. c #DEA3F8",
"7. c #DFA5F8",
"8. c #E0A5F8",
"9. c #E1A7F8",
"0. c #E2A9F8",
"q. c #E2AAF9",
"w. c #E3ABF9",
"e. c #E4ACF9",
"r. c #E4ADF9",
"t. c #E5AEF9",
"y. c #E5AFF9",
"u. c #E6AFF9",
"i. c #E6B0F9",
"p. c #E8B2F9",
"a. c #E8B3F9",
"s. c #E9B4F9",
"d. c #EAB6F9",
"f. c #EAB7F9",
"g. c #EBB8F9",
"h. c #FFFAFF",
/* pixels */
". . . .   . . . . .   . . . . . . . . . . . . . .   . . . . . . . .   . . . . . . . . . .     . . . . .   . . . . . . . .   . . ",
"                                                                                                                                ",
"                                                                                                                                ",
"                                                                                                                                ",
"                                                                                                                                ",
"      h.                                                                                                                        ",
"                      .                                     .       .   .                                                       ",
"  .   .     .                           .                                         .   .               .     .       .           ",
". . . . . . . . . .   . . . . . . . . .   . . . . . . .   . . . . . . . . . . . . . . . . . . .     X   . . . . . . . . . h.. . ",
"X . . . . . . . . . X . . . . . . . . X X . . . . . . . . X . . . . . . . . . . . . X . . . . X X X .   . . . . . . . . . . X . ",
"X o X o o X X o X X X X X X X X X X X X X X X X X X X X X X X . X X X X g.g.g.g.s.7.) X X X X X X X X X o X X X . X . . X X X X ",
"o o O o o o o o o o o o o o o o o o o o o o o o o o o O o o o o o o o g.g.g.g.g.g.y.) ) o o o o o o o O o o o o o o + o o o o o ",
"+ + + @ + + + + + + + + + + + + + + + + + + + + + + + + + + + + o + g.g.g.g.g.d.s.1.' ` ` + g.g.g.+ O + + + + + + + + + + + + + ",
"@ # @ @ @ @ @ @ @ @ @ + + @ @ @ @ @ @ @ @ @ @ @ @ @ @ @ @ @ @ @ + | 8.g.g.g.g.t.=.| ' ' ' ` g.g.g.g.@ @ @ @ @ @ # @ + @ + # # + ",
"$ $ $ # # # # # # # # # # # # # $ $ $ $ $ $ $ $ $ $ $ $ # # % # # ` @.8.t.g.e.@.:.y.i.i.q.:.g.g.g.:.% # # # # # # # # % # # # # ",
"& % % % % % % % $ * % % % % % * % % % % $ % & $ % % % $ % % % ' ;.0.e.u.4.O.` | s.g.g.g.g.%.%.q.g.g.' % % % % % % % % % % % % % ",
"& & & & & & & & & & & & & & & h.& & & & & & & & & & g.g.g.g.' :.s.g.g.g.s.y.X.| 2.g.g.g.g.g.@.$.g.g.' ' g.g.g.& & & & & & & & & ",
"* = = & & = = & & & = & = & & & & = * & & * * * * g.g.g.g.g.g.g.g.g.g.g.g.g.y.=.@.g.g.g.g.g.,.e.s.7...' g.g.g.g.& & & & = & & = ",
"= & - & & = = = = = = & = = & = = = = = = * = = g.g.g.g.g.g.g.g.g.g.g.g.g.g.g.g.#.4.g.g.g.g.g.g.g.g.g.' g.g.g.g.= = = = = = = = ",
"= = - = - = = = = = = = = = = = = = = = = = = = g.g.g.g.g.g.g.g.g.g.g.g.g.g.g.g.4.$.g.g.g.g.g.g.g.g.g.g.g.g.g.g.' ' = = = = = = ",
"= - ; & - = - - = = - - = - = = - = - = = = - - s.g.g.g.g.g.g.g.g.g.g.g.g.g.g.g.g.g.g.g.g.g.g.g.g.g.g.g.) g.g.g.) ' - = = - - = ",
"- - ; ; - - - - - - - - - - - - - - - = - = - - ` ` g.g.g.g.g.8.p.g.g.g.g.g.g.g.p.g.g.g.g.g.g.g.g.g.g.g.) ) g.g.f.' - - - = - - ",
"; ; ; ; - ; ; ; ; ; ; ; ; ; - ; ; ; ; ; ; ; ; ; ; ` { 1.i.y.*.' g.g.g.g.g.g.g.=.:.e.s.g.g.g.g.g.g.g.g.g.) ; g.' ) ; ; ; - ; ; ; ",
"; ; ; ; ; ; ; ; ; ; ; ; ; ; ; ; ; ; ; ; ; ; ; ; ; ; ` ' ....' ` g.g.g.g.g.g.g.` ` ; 1.g.g.g.g.g.g.) ) ; ; ; ; ; ; ; ; ; ; ; ; ; ",
": : : : : : ; : : : : ; : : : : : : : ; : : ; : ; : ; : ` ` ` g.` g.g.g.g.) ) ) ; ; : g.g.g.` ` ) : : : : : : : : ; : ; : : ; : ",
"> > > : : : : : : : : : : : : : : : : : : : : > : > : : > > : : : ` ) ) ) ) > : > > > : : : : : : : : : : : : : : : : > > : : > ",
", , , , , , , , , , , , , , , , > > 2 : , , , , , , , , > , > , , , , , , > , > , , , , , , , , > > > , > > , , , , > > , , , > ",
"2 , 2 , , 2 , , g.` ] , , , , , 2 , , 2 , , , , , , , , , < , > , , , , , , < , , , , , , , , , , < , < , , , , , , < , , , , , ",
"2 2 2 2 2 2 2 ' g.:.@.2 2 , < < 2 2 2 < < < < < < < < < < < < < 2 2 2 , < < < < < < < < 1 , < < < < < < < < < < < < < < 2 < < < ",
"1 5 3 2 g.s.g.#.g.s.g.@.` ] 2 3 2 2 2 < 3 3 3 3 4 1 3 3 3 2 3 3 2 3 3 3 2 5 2 2 3 3 2 1 3 3 3 3 2 5 2 2 3 2 2 3 < < 5 2 5 2 5 2 ",
"5 5 5 s.g.g.e.1.g.g.g.g.) ) ) 3 5 3 3 3 3 3 3 1 3 3 3 1 1 3 5 3 3 5 4 3 2 1 5 5 3 3 5 1 3 3 3 3 3 3 5 4 3 3 3 3 5 5 5 1 5 2 2 h.",
"5 5 5 ) ) y.:.#.g.s.g.g.) ) g.5 5 5 5 5 5 5 5 5 5 5 5 5 5 5 5 4 5 5 5 5 5 5 5 5 4 5 5 5 5 5 5 5 5 5 3 5 5 5 5 3 5 4 2 5 5 5 5 5 ",
"9 9 9 5 9 5 ` ` X.=.X.) 5 5 7 5 5 5 5 t 9 5 5 5 5 5 5 5 5 5 5 5 5 5 9 5 5 5 5 9 5 5 5 5 5 5 5 5 5 5 5 5 5 5 5 5 5 9 5 5 5 5 5 5 ",
"r r i i 9 q q 0 9 9 9 q q 7 7 7 9 9 7 9 9 9 9 9 q q q 5 q q 5 q 9 5 9 9 9 9 h.9 9 9 q q q q 5 q q q 5 q 9 9 9 9 9 9 9 9 q 9 9 q ",
"f s s s s i i i i i i i i i p i i i s s i i r i f q i i p i i i p p r i r i p r i i i i i p i i p p f p i i q i i i i i r p p p ",
"n n c g c g j j g g g g g g j s f f f f f f f s f g g g g f f g g g f f f f f f g g i j g f f g f f f k g g g f g g g g f f f f ",
"m n m n c c c c v g c c n n z n n c c l c g c c c g c c c c c k l c c f c c c c j z c z n z z z c c c c c c g c l c c g v c c c ",
"V V M M m m N m M m m m m n n m m m m m m m m m m m m m m v m m m m m m m m m m m m m m m m m n m m m m m m m m m m m m m m m m ",
"A V V V V V V M N N M M m M M m M M M M N N N N M M M M N N M M M M M N M M m M M M M M M M M M M m N N M m N N M M N M N N m N ",
"A A A V A V V V V V V V A M A A V V V M V V V V V V V V V V V V V V V V V V V V V V V V V V V V V V V V V V V V V V V V V V V V ",
"D D A A A A A A A A A A A A A A A A A A A A A A V S S V A S S A A A A A A A A A A A A A A A A A A A A A A A A A A A A A A A A A ",
"F F F D F D D F S S S S S S S S S A S S S S S S S S S S S S S S A S S A S A S S S S S A S S S S S S S S S S S S A A S S A S S S ",
"K G F F F F F F F F F F F F F F F D F S F S F F F F F F S D F F F S F F S F F S F F F F F F F F F F F F F S F S F S F S S F F F ",
"P K K G K K F G F G F G F F F F G F G F G F G F F F F F F H F F G F G G G F G G F F F G G F F G F F F F F G G F G G G F G F F G ",
"I I P P L K K K H H H G G G G G G G H G G G G H K H H H H H K K G G H G G G H H G G H G G H G G G G G G G H G G G G G G G G G G ",
"Y I I I P I I L H G I H H I H G H L L H G L L L L L L L L L L L L L L H L L L L L H H H I H H G H I I H L L H I L L L H H L L L ",
"Y Y Y I Y I I I U U I I U I I I U U U I Q Q Q Q Q I I I I I I I I I I I I I I I U I I I U I I I I I I I I I I I I I I I I I U I ",
"E R T Y Y Y I Y U U U U U U U U U U Q Q Q Q Q Q Q Q U U U I U U U U U U U U U U U U U U U U U U U U U U U U U U U U U U U U U U ",
"! ! R E R R R R Y R E Y Y Y Y Y Y Y Q Q Q Q Q Q Q Q Q Y Y Y Y Y Y Y Y Y Y Y Y Y Y Y Y Y Y Y Y Y Y Y Y Y T T T Y T Y T Y T Y Y Y ",
"! ~ ! ! ! ! E ! E E E E E E E E Q Q Q Q Q Q Q Q Q Q Q Q E E E E E E E E E E E E E E E E E E E E R W W R E E E E E E E E E E E E ",
"^ ^ ~ ~ ~ ! ~ ! ~ ! ! ! ! ! ! Q Q Q Q Q Q Q Q Q Q Q Q Q Q ! ! ! ! ! ! ! ! ! ! ! C C ! ! ! ! ! ! ! ! W W ! ! ! ! W W ! ! W ! ! ! ",
"C ^ / ^ ^ ^ ~ ^ ~ ~ ~ ~ ^ ~ Q Q Q Q Q Q Q Q Q Q Q Q Q Q Q ~ ~ ~ ~ ~ ~ ~ ~ ~ C C C C C Z ~ ~ ~ ~ ~ ~ ~ ~ ~ ~ ~ ~ ~ ~ ~ ~ ~ ~ ~ ~ ",
"C C C / / ^ / / / / ^ ^ ^ Q Q Q Q Q Q Q Q Q Q Q Q Q Q Q Q Q Q ^ ^ ^ ^ ^ ^ C C C C C C C C ^ ^ ^ ^ ^ / ^ ^ ^ ^ ^ ^ ^ ^ / / ^ ^ ^ ",
"C C C C C / / / / / / / Q Q Q Q Q Q Q Q Q Q Q Q Q Q Q Q Q Q Q / / / / / C C C C C C C C C C / / ^ ( / / / / / Q / / / / / / / Z ",
"C C C C C C C ( ( / ( ( Q Q Q Q Q Q Q Q Q Q Q Q Q Q Q Q Q Q Q Q ( / / C C 4 C C C C C C C C C C ( / ( ( ( Q Q Q Q / ( ( ( C Z Z ",
"4 C C C C C C C C ( ( Q Q Q Q 4 Q Q Q Q Q Q Q Q Q Q Q Q Q Q Q Q Q ( J C 4 4 4 C C C C C C C C C D ( ( Q Q Q Q Q Q Q ( C C C C Z ",
"4 4 C C C C C C Z Z Q Q Q Q 4 4 Q Q Q Q Q Q Q Q Q Q Q Q Q Q Q Q Q C C C 4 4 4 C C C C C C C C C C C Q Q Q Q Q Q Q Q C C C C C 5 ",
"4 4 C C C C C C C Q Q Q Q Q 4 4 Q Q Q Q Q Q Q Q Q Q Q Q Q Q 4 4 Q C C Z 4 4 4 C C C C C C C C C C C C Q Q Q Q Q Q Z C C C C C 4 ",
"4 4 C C C C C C C Q Q Q Q 4 4 4 4 Q Q Q Q Q Q Q Q Q Q Q Q Q 4 4 Q C C 4 4 4 4 4 C C C C C C C C C C C C C Q Q C C C C C C C C 4 ",
"4 4 4 C C C C C Q Q Q Q Q 4 4 4 4 Q Q Q Q Q Q Q Q Q Q Q Q Q 4 4 Q Q C 5 4 4 4 4 C C C C C C C C C C C C C C C C C C C C C C 4 4 ",
"4 4 4 4 C C C 4 4 Q Q Q 4 4 4 4 4 Q Q Q 4 4 Q Q Q Q Q Q Q 4 4 4 Q Q 4 4 4 4 4 4 C C 4 C C C C C 4 4 C C C C 4 C C C C C C C 4 4 ",
"4 4 4 4 C C C 4 4 Q Q 4 4 4 4 4 4 Q Q 4 4 4 Q Q Q 4 Q Q 4 4 4 4 4 Q 4 4 4 4 4 4 4 4 4 4 C C C 4 4 4 4 C C C 4 4 C C C C C 4 4 4 ",
"4 4 4 4 C C 4 4 4 4 Q 4 4 4 4 4 4 4 4 4 4 4 4 Q 4 4 Q Q 4 4 4 4 4 Q 4 4 4 4 4 4 4 4 4 4 C C 4 4 4 4 4 C C 4 4 4 C C 4 4 C 4 4 4 ",
"4 4 4 4 4 4 4 4 4 4 4 4 4 4 4 4 4 4 4 4 4 4 4 4 4 4 4 4 4 4 4 4 4 4 4 4 4 4 4 4 4 4 4 4 C 4 4 4 4 4 4 4 4 4 4 4 4 4 4 4 4 4 4 4 "
};
