/* XPM */
static char *b54b1d91d5344e11d7a4e3c4234488ddxEEovFvK15pkbGip[] = {
/* columns rows colors chars-per-pixel */
"64 64 135 2 ",
"   c #260368",
".  c #29056C",
"X  c #2C0772",
"o  c #2F0876",
"O  c #2F0978",
"+  c #300875",
"@  c #320A7C",
"#  c #350C82",
"$  c #390F87",
"%  c #390F88",
"&  c #3C108E",
"*  c #3F1292",
"=  c #400E87",
"-  c #43118E",
";  c #411496",
":  c #44159C",
">  c #51169F",
",  c #4716A0",
"<  c #4817A0",
"1  c #4718A3",
"2  c #4919A4",
"3  c #4D1AAB",
"4  c #511BAC",
"5  c #5819A9",
"6  c #521DB3",
"7  c #5A1EB5",
"8  c #561FB8",
"9  c #581FB9",
"0  c #661FB9",
"q  c #5620B9",
"w  c #5A21BD",
"e  c #6120BC",
"r  c #551CC5",
"t  c #5C23C0",
"y  c #5C22C1",
"u  c #5D22C1",
"i  c #5C23C1",
"p  c #5D23C1",
"a  c #5D22C0",
"s  c #5E23C1",
"d  c #5F23C2",
"f  c #5D21C1",
"g  c #5E24C2",
"h  c #5E24C3",
"j  c #5F24C3",
"k  c #5F25C3",
"l  c #5E24C4",
"z  c #5F24C4",
"x  c #6025C3",
"c  c #6125C5",
"v  c #6125C4",
"b  c #6225C5",
"n  c #6224C5",
"m  c #6226C5",
"M  c #6125C6",
"N  c #6225C6",
"B  c #6326C7",
"V  c #6526C7",
"C  c #6527C7",
"Z  c #6C23C6",
"A  c #6B24C7",
"S  c #6526C8",
"D  c #6527C8",
"F  c #6626C8",
"G  c #6626C9",
"H  c #6727C9",
"J  c #6827C9",
"K  c #6828CB",
"L  c #6829CB",
"P  c #6929CB",
"I  c #6928CA",
"U  c #6A29CB",
"Y  c #6B29CC",
"T  c #6B2ACC",
"R  c #6C29CD",
"E  c #6D2BCD",
"W  c #6E2BCE",
"Q  c #6F2CCF",
"!  c #6E2ACE",
"~  c #7124C7",
"^  c #7124C8",
"/  c #7526CD",
"(  c #702BCF",
")  c #742DD3",
"_  c #7828D3",
"`  c #7B28D5",
"'  c #7A29D7",
"]  c #7D29D7",
"[  c #792FD7",
"{  c #7E2ADA",
"}  c #7730D6",
"|  c #7830D6",
" . c #7D32D9",
".. c #7D3EED",
"X. c #7C3DF0",
"o. c #802ADA",
"O. c #822BDD",
"+. c #822BDE",
"@. c #832CDE",
"#. c #8234DD",
"$. c #832CE0",
"%. c #842CE0",
"&. c #852CE0",
"*. c #842CE1",
"=. c #852DE2",
"-. c #872DE3",
";. c #892EE5",
":. c #892EE6",
">. c #8A2FE7",
",. c #8B2FE8",
"<. c #8636E0",
"1. c #8738E0",
"2. c #8D3AE3",
"3. c #933EE7",
"4. c #933FE8",
"5. c #8544EE",
"6. c #9441E7",
"7. c #9743E9",
"8. c #9944EA",
"9. c #9D48EB",
"0. c #A14EED",
"q. c #A754EE",
"w. c #A856EF",
"e. c #AA59EF",
"r. c #AD5CF0",
"t. c #B05FF1",
"y. c #9864F5",
"u. c #B363F2",
"i. c #B768F3",
"p. c #BB6CF4",
"a. c #BE71F5",
"s. c #C275F6",
"d. c #E4CBA2",
"f. c #FBEAB2",
"g. c #FFFAFF",
/* pixels */
". . . . .   . . . . . . . . . . . . . . . .   . .   . . . . . . . .   . . . . . . . . . . .   . . . . . . . .   . .   . . . . . ",
"                                                                                                                                ",
"                                                                                                                                ",
"                                                                                                                                ",
"                                                                                                                                ",
"                                                                                                                                ",
"            .                                                       .                                 .                         ",
"  . .           .               .       .             .       . .             + ~ O.O.O.o.= +               .         .         ",
". . . . .   . . . . . . . . . .   . . g.  . . . . . .   .   . . . .   . . + > o.f.f.f.f.f.O./ + . . .   .   X   . . . . . . . . ",
"X . . X . X . X . . . . . . . . X . . X X . X . X . . X . X . . . . . . - ,.f.f.f.f.f.f.f.f.f.,.e X X X . X . X . . . . . . . . ",
"X X X X X X X X . + X X X X X X X X X X X X X X X X X X X X X X + + + . -.f.f.f.f.f.f.f.f.d.f.f.,.- X X X X X X + . + . X X + + ",
"O O O o o o X o + + + + @ X O O o o O O X o o o X X o O O X O X + + @ 5 f.f.f.f.f.f.f.f.f.f.f.f.f./ # O X o O X + + + + X + + + ",
"# # O # # @ @ @ @ @ @ @ @ @ @ @ @ @ @ @ @ @ @ @ @ @ @ @ @ @ @ @ + @ $ ` f.f.d.d.f.f.f.f.f.f.f.f.f.,.- @ O @ @ @ @ @ @ @ @ @ g.@ ",
"# # # # # # # # # # # $ # # # # # # # # # # # # # # # # # # # # # # o.f.f.f.f.f.f.f.f.f.f.f.f.f.d.f.O.# # # # # # # # # # # # # ",
"% % # % % % % % % % % % % % % % % % % % % % % % % % % % $ $ $ & $ $ @.f.f.f.f.f.f.f.f.f.f.d.f.f.d.f.;.$ $ $ $ $ $ & $ $ $ & $ $ ",
"* & & * & & & & & % % & & % * % % * % & & & & & % & & & & & & & & & @.f.f.d.f.f.f.f.f.f.f.f.f.d.d.f.;.& & & & & & & & & & & & & ",
"* * * * * * * * * * * * * * * * * * * * * * * * * * * * * * * * * * *.f.f.f.f.f.f.f.f.f.f.f.f.d.f.f.;.* * * * * * * * * * * * * ",
"; : * * : * * : * * : * : * * * * : ; ; * ; ; ; : * * ; ; ; ; ; * : *.f.f.f.f.f.f.f.f.f.f.f.f.f.f.d.;.; * : * : ; * * * : * ; ; ",
": * , : : : 1 * : : : * : : * : : : : ; : ; : : * : : : : ; : ; : : 2 o.f.f.f.f.f.f.f.f.f.f.d.d.f.,.4 : : * : : : : : : ; : : : ",
", : * 1 : : : 1 : : : : : : : : : : : : : : : : : : : : : : : : : : , A f.f.f.f.f.f.f.f.f.d.d.f.f.o.< : : : : : : : : : : : : : ",
": , : , : : 1 : , : , 1 : : : 1 , : , : : : : , , : , 1 1 : : 1 : : , : ,.f.f.d.f.f.f.f.f.f.d.f.,.7 , : : , : , , < : : : : 1 : ",
"1 , , , , , , , , , , , , , , 1 , , , , , , , , , , , , , , , 1 , , , , 0 ,.f.f.f.d.d.d.d.f.f.,._ 3 : > , , , , < < < 1 : 1 : 1 ",
"2 2 2 1 1 2 1 1 2 2 2 2 1 1 1 1 1 1 2 2 2 1 1 2 2 2 1 1 1 , 2 1 2 2 1 2 2 6 A ,.f.f.f.d.f.,.{ 6 2 2 2 2 , 1 2 , < 2 2 1 1 2 2 2 ",
"2 2 3 2 2 2 2 1 2 2 2 2 2 2 2 2 2 2 2 2 2 2 2 2 2 2 2 2 g.1 2 2 2 2 2 2 2 2 2 3 ' -.*.*.*.7 3 3 2 2 2 2 2 2 2 3 2 2 2 2 2 2 2 2 ",
"3 3 3 3 3 2 3 2 3 3 3 2 2 3 3 3 3 3 3 2 2 3 2 2 3 3 2 3 2 2 3 2 3 2 2 3 2 2 3 3 2 3 2 3 3 3 2 3 2 3 3 2 3 3 3 2 3 3 3 2 3 3 2 3 ",
"6 3 6 3 3 3 6 3 3 3 3 6 3 3 3 3 3 3 6 3 3 3 3 6 3 3 3 3 3 3 6 3 3 3 3 3 6 3 6 3 3 3 6 3 3 3 3 3 3 3 3 3 3 3 3 3 3 3 3 3 3 6 3 3 ",
"6 6 6 6 6 6 6 6 6 6 6 6 6 6 6 6 6 6 6 6 6 6 6 6 6 6 6 6 6 6 6 6 6 6 6 6 6 6 6 3 6 6 6 6 6 6 6 6 6 6 6 6 6 6 6 6 6 6 6 6 3 6 6 6 ",
"9 6 6 6 q 6 6 6 6 6 6 6 6 6 6 6 6 6 6 6 6 6 6 6 6 8 6 6 6 6 6 6 6 6 6 8 6 6 6 6 6 6 6 8 6 6 6 6 6 8 6 6 6 6 6 6 6 6 6 6 6 6 q 6 ",
"9 9 w 9 q q q 6 q q 8 8 8 8 9 9 q 6 9 9 8 8 9 8 8 8 9 6 q 9 9 8 8 8 6 9 9 8 8 8 8 8 9 8 9 q 9 9 8 8 8 8 9 6 q 8 9 6 9 q q q q 8 ",
"9 y w 9 w w w w q w 9 w q w w w w w w q q w w w r 8 w w w w w q w w w w w w w q 9 9 w 8 w w q w q t t q w w w w w w w w w w q w ",
"d d w w w w w g.w w w y w w w 9 w w i w w w w w w w w w w w w w w w y w w w t w w w w w w w w w w r t 8 w w w w w y w w w w w t ",
"v d d d d d d d d d d y d y d d i i i d d y d y y y d d y y d y y i d y y y y t y y d d y y y d d y y y d y y y y y y y y y y i ",
"M M x v x v x x v v v v i x x x x i i x l M i i i i M i i l l l l l x i M i l i d d i z z z d d i M i l i i x i M x i i l l i M ",
"C M G C M M M M v v v v M M M x M M M M M M M x M M M M M M M l M l M M M M M M M M M C M M M M M M M M M x M M M M M M M M M M ",
"! J J C J J G G G G C C J G J C G C A G L C A C L C A C G G B G G G G G C J G G C G C C G G C G G G C J A C g.C C J G A C C C C ",
"( ! ! ! ! L L K L J ! L L L L L L L L L L L L L L L L L L L K K L L L L L L L L L L J L L L L L L L J L L L L L L L L L J ! L L ",
") ) ( ( ( ! ( ! ( ! ! ! ( ( E ( ( ! ! ! ! ! ! ! ! ( ! ( L ( ( ( ! ! ! ! ! ! ! ! ! ! ! ! ! ! ! ( ! ! ! ! ! ! ! ! ! ! ! L ! ! ! ! ",
" .| [ [ [ ) ) ) ) ) ) ) ) ( ( ( ) ) ) ) ( ) ) ) ) ( ) ( ) ) ) ) ) ( ) ) ) ) ( ) ) ) ) ) ( ) ) ( ) ) ) ) ) ) ) ) ) ) ) ) ) ) ) ) ",
" .#. .|  . . .[ | | [ } | | | | [ [ ) [ | | } | | | [ | } } } } [ } [ } } [ | | | } | | | | [ [ ) [ | | } } } ) [ ) } [ } | ) | ",
"#.#.#.#. .#. . . . . . .| #. .#. . . . . . . . . . . . . . . .{  . . . . . . . . . . . . . .#.O. . . . . . . . . . . . . . . . .",
"1.1.#.#.#.#.#.#.#.@.#.@.#.#.@.#.#.#.#.#.#.#.#.#. .<.#.#.#. .#.#.#.#.#.#.O.#.#.#.#.#.#.#.#.#.#.#.#.#.#.#.#.#.#.@.#.#.#.#.#.#.#.#.",
"3.2.2.1.3.1.1.2.2.#.#.2.#.#.2.#.1.#.<.<.<.<.1.#.<.<.<.<.<.<.<.<.#.1.<.1.<.<.<.<.<.<.1.#.#.@.2.#.<.#.2.#.3.#.#.@.1.#.<.#.<.<.<.<.",
"3.2.2.2.2.2.2.2.2.;.2.2.3.#.2.#.2.1.2.1.2.2.2.2.2.2.1.1.2.2.2.2.2.1.2.1.2.2.2.2.2.1.2.1.2.2.2.2.2.2.#.2.#.3.2.2.2.1.2.1.2.2.2.1.",
"8.6.6.6.6.3.2.3.3.2.2.3.3.3.3.3.2.3.3.2.2.3.2.2.3.2.3.2.2.3.2.2.2.2.3.3.3.2.2.2.2.3.2.3.2.3.2.3.2.3.3.2.2.3.3.3.3.3.2.3.2.3.2.2.",
"9.9.7.7.6.7.7.6.4.4.4.4.3.3.4.4.3.4.4.4.3.4.4.4.4.4.4.4.4.4.6.6.3.3.4.3.4.3.4.4.4.4.4.4.4.3.4.4.3.3.3.3.4.4.4.4.4.4.3.3.3.4.4.3.",
"q.0.9.9.8.8.8.7.8.4.8.8.4.8.8.4.4.8.4.4.4.4.8.8.7.7.7.7.6.7.7.7.8.8.8.4.4.8.8.4.8.4.4.4.0.4.4.4.4.8.4.8.8.4.8.4.8.4.4.4.4.8.8.4.",
"q.q.q.9.9.9.9.9.0.8.0.8.0.0.0.4.0.0.0.8.y.y.y.y.y.9.9.9.9.9.9.9.9.9.9.9.0.9.9.9.0.8.0.8.8.0.4.0.0.8.0.0.0.4.0.4.0.0.8.0.0.4.0.0.",
"e.q.r.w.q.q.q.q.0.0.0.0.0.0.0.0.0.0.y.y.y.y.y.y.y.y.0.0.0.0.0.0.0.0.0.0.0.0.0.0.0.0.0.0.0.0.0.0.0.0.0.0.0.0.0.0.0.0.0.0.0.0.0.0.",
"u.t.t.e.e.e.e.e.e.e.w.q.w.q.q.q.q.q.y.y.y.y.y.y.y.y.y.q.q.q.q.q.q.q.q.q.q.w.q.q.w.w.w.w.q.q.q.q.0.q.q.q.q.q.q.q.q.q.q.q.q.q.q.q.",
"i.u.u.u.t.t.t.t.t.r.u.e.e.u.e.e.y.y.y.y.y.y.y.y.y.y.y.y.r.r.r.r.r.r.r.r.r.r.r.r.r.r.r.r.r.r.r.t.r.r.r.r.t.t.t.e.r.t.t.t.t.e.r.t.",
"p.p.p.i.i.u.u.u.u.u.u.u.u.u.y y.y.y.y.y.y.y.y.y.y.y.y.y.y.u.u.u.u.u.u.u.u.u.u.u.X.X.u.u.t.u.u.u.t.t.t.t.t.t.t.t.t.t.u.t.t.u.t.u.",
"..a.p.p.p.p.p.p.p.i.i.i.i.r r y.y.y.y.y.y.y.y.y.y.y.y.y.y.i.i.i.i.i.i.i.i.i.........X.1.i.i.i.i.p.i.p.p.i.i.p.i.i.i.i.i.i.i.i.i.",
"......a.p.a.a.a.p.a.p.a.p.r r y.y.y.y.y.y.y.y.y.y.y.y.y.y.y.y.p.p.p.p.p.p.................p.p.r p.p.p.p.p.p.p.p.p.p.p.p.p.p.p.p.",
"..........a.a.a.a.a.a.a.y.r r y.y.y.y.y.y.y.y.y.y.y.y.y.y.y.y.a.a.a.a.a.....................p.r r s.p.s.s.s.p.y.s.p.s.p.s.s.s...",
"..............s.s.s.s.s.r r r y.y.y.y.y.y.y.y.y.y.y.y.y.y.y.y.y.s.s.a.........................r r s.s.s.s.y.y.y.y.s.s.s.s.......",
"r ................s.s.y.r r r r y.y.y.y.y.y.y.y.y.y.y.y.y.y.y.y.y.a.5.........................r r s.s.y.y.y.y.y.y.y.s...........",
"r ..............X.X.y.y.r r r r y.y.y.y.y.y.y.y.y.y.y.y.y.y.y.y.y.X.........................r r r r y.y.y.y.y.r y.y...........r ",
"r ........r r ....y.y.y.r r r r y.y.y.y.y.y.y.y.y.y.y.y.y.y.y.r y ..........................r r r r ..y.y.y.y.r y.............r ",
"r r ......r r ....y.y.r r r r r y.y.y.y.y.y.y.y.y.y.y.y.y.y.y.r r X.........................r r r r ......y.y.r ..........r r r ",
"r r r ....r r ..y.y.y.r r r r r r y.y.y.y.y.y.y.y.y.y.y.y.y.r r r r ..................r ..r r r r r r ......r r ..........r r r ",
"r r r ..r r r y.y.y.r r r r r r r y.y.r r y.y.y.y.y.y.y.y.y.r r r r r ..r r ..r r ..r r ..r r r r r r ......r r r ......r r r r ",
"r r r ..r r r r y.y.r r r r r r r y.r r r r y.y.r r y.y.y.r r r r r r ..r r ..r r ..r r r r r r r r r r ..r r r r r ..r r r r r ",
"r r r r r r r r y.r r r r r r r r y.r r r r y.r r r r y.r r r r r r r r r r r r r r r r r r r r r r r r r r r r r r r r r r r r ",
"r r r r r r r r r r r r r r r r r r r r r r r r r r r r r r r r r r r r r r r r r r r r r r r r r r r r r r r r r r r r r r r r "
};
