/* XPM */
static char *f7a6841c958d4008c90d208e629bb5ecDDg3D7SLsGca2UfB[] = {
/* columns rows colors chars-per-pixel */
"64 64 120 2 ",
"   c #260368",
".  c #29056C",
"X  c #2C0772",
"o  c #2F0876",
"O  c #2F0978",
"+  c #320A7C",
"@  c #350C82",
"#  c #390F87",
"$  c #390F88",
"%  c #3C108E",
"&  c #3F1292",
"*  c #411496",
"=  c #44159C",
"-  c #4716A0",
";  c #4718A3",
":  c #4919A4",
">  c #4D1AAB",
",  c #501BAE",
"<  c #521DB3",
"1  c #561FB8",
"2  c #581FB9",
"3  c #5221AD",
"4  c #5620B9",
"5  c #5A21BD",
"6  c #6134AA",
"7  c #734BA5",
"8  c #7A4FB1",
"9  c #551CC5",
"0  c #5E23C2",
"q  c #6526C7",
"w  c #6125C5",
"e  c #6426C8",
"r  c #6526C8",
"t  c #6527C8",
"y  c #6626C8",
"u  c #6726C8",
"i  c #6626C9",
"p  c #6727C9",
"a  c #6827C9",
"s  c #6828CB",
"d  c #6829CB",
"f  c #6929CB",
"g  c #6928CA",
"h  c #6A29CB",
"j  c #6B29CC",
"k  c #6B2ACC",
"l  c #6C29CD",
"z  c #6D2ACD",
"x  c #6D2BCD",
"c  c #6E2ACD",
"v  c #6D2ACE",
"b  c #6D2BCE",
"n  c #6E2ACE",
"m  c #6E2BCE",
"M  c #6E2ACF",
"N  c #6F2BCF",
"B  c #6F2CCF",
"V  c #702BCF",
"C  c #702CD0",
"Z  c #722DD1",
"A  c #732DD2",
"S  c #752ED2",
"D  c #742DD3",
"F  c #792FD7",
"G  c #7730D6",
"H  c #7830D6",
"J  c #7D32D9",
"K  c #7D3EED",
"L  c #7C3DF0",
"P  c #8D6AA9",
"I  c #916DA7",
"U  c #9773AD",
"Y  c #8234DD",
"T  c #8636E0",
"R  c #8738E0",
"E  c #8D3AE3",
"W  c #933EE7",
"Q  c #933FE8",
"!  c #8544EE",
"~  c #9441E7",
"^  c #9743E9",
"/  c #9944EA",
"(  c #9D48EB",
")  c #A14EED",
"_  c #A754EE",
"`  c #A856EF",
"'  c #AA59EF",
"]  c #AD5CF0",
"[  c #B05FF1",
"{  c #9864F5",
"}  c #B363F2",
"|  c #B768F3",
" . c #BB6CF4",
".. c #BE71F5",
"X. c #C275F6",
"o. c #B79EA0",
"O. c #BC9FAE",
"+. c #A584B0",
"@. c #B9A0A2",
"#. c #C5ADA3",
"$. c #C7AFA9",
"%. c #C7B0A5",
"&. c #C9B1A8",
"*. c #D0B9AB",
"=. c #D3BDAB",
"-. c #E8D5AD",
";. c #ECD9AF",
":. c #EDDAAF",
">. c #EEDBAF",
",. c #EAD6B1",
"<. c #F3E0B1",
"1. c #F3E1B2",
"2. c #F7E6B1",
"3. c #F8E6B1",
"4. c #F8E7B1",
"5. c #F8E7B2",
"6. c #F9E7B2",
"7. c #FBEAB2",
"8. c #FAE8B2",
"9. c #FFFAFF",
/* pixels */
". . . .   . .   . . . . . . . .   . . . . .   . .   . . . . . . . .   . . . . .   . . . . .   . . . . . . .   . .   . . . . . . ",
"                                                                                                                                ",
"                                                                                                                                ",
"                                                                                                                                ",
"                                                                                                                                ",
"                                                                                                                                ",
"          9.                      .                                 .             .         .             .   .                 ",
"  .   .     .   .                   .       .         .       .                     .                               .           ",
". . . . . . . . . . . . . . . . . . . .   . . . . . .   .   .   . . . . . . . . . . . . . . . . .     . . . . . . . . . . . . . ",
". X . . X . . . . . . . . . . . . . . X X . . . X . . . . X . . . . . . X . . . . . X . . X . . . X . . . . . . . . . . . . . . ",
"X X X X X X X X . X X X X . o o X X X X X X X X X X X X X X X X X X . X X X . X X X X X X X 7.X o X X X X X X X . X . o X X X X ",
"O + O O O O o o o o o o o o o o o o o + o o o o o o o o o + o o o o o 9.o o o o X O o X X + 6.X o o o o o + o o o o o o o o o o ",
"+ + + @ + + + + + + + + + + + + + + + + + + + + + + + + + + + + + + + + + + + + + + + + + o.5.#.+ + + + + + + + + + + + + + + + ",
"# @ @ @ @ @ @ @ @ @ @ + @ @ @ @ @ @ @ @ @ @ @ @ @ @ @ @ @ @ @ @ # + # + # + @ @ @ # @ @ o.-.7.:.#.@ @ @ @ @ @ @ @ @ @ + # + + # ",
"$ $ $ $ # # % # # # # # # % # # $ $ $ $ # $ # # $ $ # # # # $ $ # # # # # # # # # $ $ 2.5.7.7.7.6.6.$ $ # # # @ # # # # * + * + ",
"& & & $ % % % % % % % % % % % % $ $ & $ & $ & & $ & $ $ * $ * $ % % % % % % % % $ & $ & =.:.7.:.$.$ & $ $ # * * $ * # * # # * * ",
"& & & & & & & & & & & & & & & & & & & & & & & & * & & $ * * * $ & & & & & & & & & & & & & *.5.$.* & & * * & & & & & & & & & & & ",
"* * * * * = * * = & & & = & = & = & * & & * * * * * * * * * * * * * * * * * * * & = & & & & 5.= * * * * * * * * * * * * * * * * ",
"= = = * * = * = = = = & = = & = = * = = = * = = * = = = * = * = = = = * = * = * = = = = ; & 5.& = * * = * * = * = * = = = * * = ",
"= = = = = = = = = = = = = = = = = = = = = = = = = = = = = = = = = = = = = = = = = = = = = ; - & = = = = = = = = = = = = = = = = ",
"= - = - - - - = - = - - = - = - ; - = - = = = - = = - = - = = - = = - = - = 7.7 ; = ; = = - - - = - = = - = - - - - - = - 9.= - ",
"; - ; ; - - ; - - ; - - - - - ; = - - - - - - - ; ; ; - - - - - = ; = ; - - 7.I = - - - - ; - - - - - - - - - - - - - - - - - - ",
": : : : : : ; ; : : ; : ; ; : : ; ; : : : : : - : : : : ; ; : : : : : : : P 1.,.7 : ; ; : : ; : : : : : : : ; : - ; : : : : : - ",
": : : : : : : ; : : : : : : : : > : : : : : : : : : : : : : : : : : : : 7.7.7.7.7.: : : : : : : : : : : : : : : : : : : : : : : ",
"> > > > > > > : : > : : : > : : 9.> > : : > > : > > : > > > : > > > > > 6 @.7.1.U : > > : > > : > : > : : : > : : > > > : > : > ",
"< > > , , , , > , , > , > > , , > > > > > > > , , > , , > > > > , > > > > , 7.+., > > , > , > > , , > > < < > > > , > , , , , > ",
"< < < < , , , , , < 4 , < < < < > < < < < < < < < < , < < , , < < < , < < , 7.8 < < , < < < , < < , < < < , < < < < , , , < < , ",
"1 1 1 < 1 < 2 1 1 < < 1 < < < < < 1 < < < < < < < < < < < < 1 < < < < < < 1 1 2 < < < < < < 1 < 1 < < < < < < < < < 1 < 1 < < 1 ",
"2 2 5 5 2 4 5 4 4 1 2 2 1 1 2 2 4 4 2 2 2 1 2 2 1 1 4 4 1 1 1 1 1 4 1 4 1 2 1 1 2 2 2 2 1 4 2 2 1 4 4 1 1 1 2 2 1 4 1 4 1 1 1 1 ",
"2 2 5 5 5 5 5 5 5 4 2 5 5 4 5 5 5 5 4 5 4 4 5 4 4 9 4 5 4 5 5 5 5 5 4 5 2 5 4 4 2 5 5 2 4 4 4 5 4 4 1 0 5 5 5 4 4 4 4 4 1 4 1 0 ",
"w 9 5 5 5 5 5 5 9.5 5 5 5 5 0 5 5 5 5 5 0 5 5 2 4 0 4 9 5 5 5 5 5 5 2 9 5 5 0 5 5 5 5 5 0 0 1 5 5 9 0 1 5 5 5 5 0 0 5 0 0 4 0 4 ",
"0 0 w 5 5 5 q 5 5 0 w 0 0 5 5 0 0 0 0 0 0 0 0 0 0 0 0 0 0 0 0 5 0 5 0 0 0 0 0 0 5 w 5 9 0 0 0 0 0 0 0 0 0 0 0 5 9 0 5 9 0 0 0 0 ",
"w w 0 w w w 0 w 0 w 0 w 0 w w 9 0 0 0 w w 0 0 0 0 0 0 0 0 0 0 0 w 0 0 w 0 0 0 0 0 0 0 0 0 0 0 0 0 0 0 0 0 0 0 0 w 0 w 0 0 0 0 0 ",
"q q q q w w w w w w w w w q q w w w w w w w w w e w w w w e w w w w q w w w w e w w e e e e w w e w e e w w w w w w w w w w w e ",
"f f f u u u a a t a a a q q a u t t q q t t q q p p p p t t t t t t q t t t t t t a t t e t t t t t e t t t t q t f t t t a t t ",
"V V x M k f s s f a s s a a a h f f f M s s f f p f s s s s d p f f f f s s s s s s a s d d s s s s d s f f f p s s f f f s s s ",
"D V D V V V V M M M M M n n n n M M M k V k V V b b b M M M M M k M M M M M M M s M M M M M l l M M M M M M M M V k k M M M M M ",
"J G G H F D S S D D A A A V A A D D A D D D V D A A A A D A A A D A A A D A A A D D S D A D D A A A S D A A D D V D D D A A A A ",
"Y J J J F G F F G G G G D F F D G F F D G G G D G G G G G G F F S G F G G S G G F F F S F F F F G S G G G G G S F F G G G G D G ",
"Y Y Y Y Y Y J J Y J J J Y F Y Y J J J J J J J J Y J J J J J J F J J J J J J J J J J J J J J J J J J J J J J J J J J J J J J J J ",
"Y R Y Y E Y Y Y Y T Y Y Y Y Y Y Y Y Y Y Y Y Y Y Y Y T J Y Y Y Y Y Y Y Y Y Y Y Y Y Y Y Y Y Y Y Y Y Y Y Y Y Y Y Y Y Y Y Y Y Y Y Y ",
"E W E Y E Y R E T T T T T T T T T Y T Y T T T T T T T T T T T T T T T T T T T T T T T Y T T T T T T T T T T T Y T Y T T Y T T T ",
"~ W E E E E E E E E T E T E T E E T E T E E E E R E E R E E E E T E E E T E T E E T E T E E E E T E E E E T E E E Y E Y E E E E ",
"/ ~ ~ W ~ ~ E W E E W W E W E W W W E W E E E W Q E E E E E E W W E W E W E W W W E W W E E E W E W E E W E W E W W W W E E E W ",
"( / ^ ~ ^ ^ ^ ~ W W W W Q Q W Q W W Q Q W W W W ^ W Q Q ^ W Q Q W W W W W W W W W W W W W W Q W W W Q W Q Q Q Q W W W W W W W W ",
"_ ) ( ( ^ / ^ ^ Q W ) W ( Q Q Q Q ( Q Q Q ^ Q ( ^ ^ ^ ^ ^ ^ ^ ^ ^ ^ ^ ^ ^ ^ ^ ^ ^ W Q ^ / / / Q Q ( Q Q Q Q ( Q ^ ^ ^ Q Q ^ ^ ^ ",
"_ _ _ ) ( ( ( ( ) ) ( ( ) ( ( ( ) ( ) ( { { { { { ( ( ( / ( ( ( ( ( ( ( ( ( ( ( ( ( ( ( ( ) / ( Q ) ) ) ( ( ( ( ) ( ( ( ( ( ) ( ",
"' ' ' ' _ _ _ _ ) ) ) ) ) ) ) ) ) ) { { { { { { { { ) ( _ ( _ ( ) ) ) ) ) ) ) ) ) ) ) ) ) ) ) ) ) ) ) ) ) ) ) ) ) ) ) ) ) ) ) ) ",
"} [ [ ' ' ' ' ' ' ' ' ` ` ' _ _ ` ` { { { { { { { { { ` _ _ _ ` ` _ _ _ _ _ _ ` ` ` ` ` _ _ _ _ _ _ _ _ ` _ ` _ _ _ _ _ _ _ _ _ ",
"| } } } } [ [ [ [ ' ] ' ' ] ' ] { { { { { { { { { { { { ] ] ] ] ] ] ] ] ] ] ] ] ] ] ] ] [ ] ] [ ] ] ] ] [ [ ] ] ] ] [ [ ] ] ] [ ",
" . . .| | } } } } } } } } } 9 { { { { { { { { { { { { { { } } } } } } } } } } } L K } } [ [ } } [ [ [ [ [ } } [ [ [ } [ } } [ [ ",
"K .. . . . . . . .|  .|  .9 9 { { { { { { { { { { { { { { | | | | } | | | | K K K K L R | | } }  .| |  .| | | | }  . .| | | | | ",
"K K K .. ..... ..... . . .9 9 { { { { { { { { { { { { { { { {  . . . . . .K K K K K K K K  . .9 X. .|  . .X.| |  . . . . . . . .",
"K K K K K ..X.........X.{ 9 9 { { { { { { { { { { { { { { { { ..........K K K K K K K K K K X.9 9 X. .X.| X.X.{ X. .X. .X.X.X.K ",
"K K K K K K K X.X...X.X.9 9 9 { { { { { { { { { { { { { { { { { X.X...L K K K K K K K K K K K 9 9 X.X.X.X.{ { { { X.X.X.X.K K K ",
"9 K K K K K K K K X.X.{ 9 9 9 9 { { { { { { { { { { { { { { { { { X.! K K K K K K K K K K K K 9 9 X.X.{ { { { { { { X.K K K K K ",
"9 K K K K K K K K L { { 9 9 9 9 { { { { { { { { { { { { { { { { { K K K K K K K K K K K K K 9 9 9 9 { { { { { 9 { { K K K K K 9 ",
"9 K K K K 9 9 K K { { { 9 9 9 9 { { { { { { { { { { { { { { { 9 9 K K K K K K K K K K K K K 9 9 9 9 K { { { { 9 { K K K K K K 9 ",
"9 9 K K K 9 9 K K { { 9 9 9 9 9 { { { { { { { { { { { { { { { 9 9 K K K K K K K K K K K K K 9 9 9 9 K K K { { 9 K K K K K 9 9 9 ",
"9 9 9 K K 9 9 K { { { 9 9 9 9 9 9 { { { { { { { { { { { { { 9 9 9 9 K K K K K K K K K 9 K 9 9 9 9 9 9 K K K 9 9 K K K K K 9 9 9 ",
"9 9 9 K 9 9 9 { { { 9 9 9 9 9 9 9 { { 9 9 { { { { { { { { { 9 9 9 9 9 K 9 9 K 9 9 K 9 9 K 9 9 9 9 9 9 K K K 9 9 9 K K K 9 9 9 9 ",
"9 9 9 K 9 9 9 9 { { 9 9 9 9 9 9 9 { 9 9 9 9 { { 9 9 { { { 9 9 9 9 9 9 K 9 9 K 9 9 K 9 9 9 9 9 9 9 9 9 9 K 9 9 9 9 9 K 9 9 9 9 9 ",
"9 9 9 9 9 9 9 9 { 9 9 9 9 9 9 9 9 { 9 9 9 9 { 9 9 9 9 { 9 9 9 9 9 9 9 9 9 9 9 9 9 9 9 9 9 9 9 9 9 9 9 9 9 9 9 9 9 9 9 9 9 9 9 9 ",
"9 9 9 9 9 9 9 9 9 9 9 9 9 9 9 9 9 9 9 9 9 9 9 9 9 9 9 9 9 9 9 9 9 9 9 9 9 9 9 9 9 9 9 9 9 9 9 9 9 9 9 9 9 9 9 9 9 9 9 9 9 9 9 9 "
};
