/* XPM */
static char *e14da3cac5064f6b8853e425bef48280mryfFxXBzKQMcw4k[] = {
/* columns rows colors chars-per-pixel */
"64 64 135 2 ",
"   c #260368",
".  c #29056C",
"X  c #300E6F",
"o  c #2C0772",
"O  c #2F0876",
"+  c #2F0978",
"@  c #320A7C",
"#  c #350C82",
"$  c #390F87",
"%  c #390F88",
"&  c #3A118A",
"*  c #3F1292",
"=  c #411496",
"-  c #44159C",
";  c #4716A0",
":  c #4718A3",
">  c #4918A4",
",  c #4C1AAB",
"<  c #501BAE",
"1  c #521DB3",
"2  c #561FB8",
"3  c #581FB9",
"4  c #5720B9",
"5  c #5A21BD",
"6  c #551CC5",
"7  c #5E23C2",
"8  c #6225C5",
"9  c #6626C8",
"0  c #6526C8",
"q  c #6827C9",
"w  c #6828CB",
"e  c #6829CB",
"r  c #6929CB",
"t  c #6928CA",
"y  c #6A29CB",
"u  c #6B29CC",
"i  c #6B2ACC",
"p  c #6C29CD",
"a  c #6D2ACD",
"s  c #6D2BCD",
"d  c #6E2ACD",
"f  c #6D2ACE",
"g  c #6D2BCE",
"h  c #6E2ACE",
"j  c #6E2BCE",
"k  c #6E2ACF",
"l  c #6F2BCF",
"z  c #6F2CCF",
"x  c #702BCF",
"c  c #702CD0",
"v  c #722DD1",
"b  c #732DD2",
"n  c #752ED2",
"m  c #742DD3",
"M  c #792FD7",
"N  c #7730D6",
"B  c #7830D6",
"V  c #7D32D9",
"C  c #7D3EED",
"Z  c #7C3DF0",
"A  c #8234DD",
"S  c #893ADD",
"D  c #8636E0",
"F  c #8738E0",
"G  c #8D3AE3",
"H  c #933EE7",
"J  c #933FE8",
"K  c #9340E6",
"L  c #9743E9",
"P  c #9944E9",
"I  c #9D48EB",
"U  c #A14EED",
"Y  c #A654EE",
"T  c #A856EF",
"R  c #AA59EE",
"E  c #AD5CF0",
"W  c #B05FF1",
"Q  c #9864F5",
"!  c #B363F2",
"~  c #B768F3",
"^  c #BB6CF4",
"/  c #BE72F5",
"(  c #C275F6",
")  c #C87EF7",
"_  c #C87FF7",
"`  c #C97FF7",
"'  c #C980F7",
"]  c #CA81F7",
"[  c #CA82F7",
"{  c #CB83F7",
"}  c #CC85F7",
"|  c #CC84F7",
" . c #CD86F7",
".. c #CE88F7",
"X. c #CF8AF7",
"o. c #D08BF7",
"O. c #D18CF7",
"+. c #D18DF8",
"@. c #D28FF8",
"#. c #D390F8",
"$. c #D391F8",
"%. c #D492F8",
"&. c #D593F8",
"*. c #D594F8",
"=. c #D797F8",
"-. c #D696F8",
";. c #D898F8",
":. c #D899F8",
">. c #D99AF8",
",. c #DA9CF8",
"<. c #DB9DF8",
"1. c #DB9EF8",
"2. c #DC9FF8",
"3. c #DCA0F8",
"4. c #DDA0F8",
"5. c #DDA1F8",
"6. c #DEA2F8",
"7. c #DEA3F8",
"8. c #DFA4F8",
"9. c #E1A7F8",
"0. c #E2A8F8",
"q. c #E2A9F8",
"w. c #E2AAF9",
"e. c #E3ABF9",
"r. c #E4ADF9",
"t. c #E7B1F9",
"y. c #E7B2F9",
"u. c #E8B3F9",
"i. c #E9B4F9",
"p. c #E9B5F9",
"a. c #EAB6F9",
"s. c #EAB7F9",
"d. c #EBB7F9",
"f. c #EBB8F9",
"g. c #FFFAFF",
/* pixels */
". . . .   . . . . .   . . . . .   . . . . . .   . . .   . . . . . .   . . . . .   . . . . . . . . . . .   .   . . .     X   .   ",
"                                                                                                                                ",
"                                                                                                                                ",
"                                                                                                                                ",
"                                                                                                                                ",
"      g.                                                                                                                        ",
"                      .         .                                               .     .                                         ",
"  .   .     .                         .               .       .   . .                       .             .   .       .         ",
". . . . . . .   . . . . . . . . . . .   . . . . . . .   . . . . . . . . . . . . . .   .   . . . . . . .   . . . X   . . . g.  . ",
". o . o o . . o . . . . . . . . . o . o o . o . . . . o . . . . . . .   . . . . o . o . o . . . o . . . o o . . . . . . . . . . ",
"o o o o o o o o X o o o o o o o o o o o o o o o o o o o o o o o o o X o o o o o o o o o o o o o o o o o o o o o X o o o o o o o ",
"@ O O O O O O @ o O O O O O O O O O O O o O O O O O O O O O + O O O O X O O O O O O O o O O O O O o O O O O O O O O O O O O O O ",
"# @ @ # @ @ @ @ @ @ @ @ @ @ @ @ @ @ O @ @ O @ @ @ @ @ + @ @ @ @ @ @ @ @ @ @ @ @ @ @ @ @ @ @ @ @ @ @ @ @ @ @ @ @ @ @ @ @ @ @ @ @ ",
"# # # # # # # # # # # # # # # # # # # # # # # # # # # # # # # # # @ # @ # # # # # # # # # # # # # # # # # # # # # # # # # # # # ",
"% % % % % % % % % % % % % % % % % % % % % % % % # % % % % % & & % $ $ $ % $ % # % % % % % % % % % # % % % % % % $ % # $ % % % $ ",
"* * * % % % = % % = % = % % = % % * % * % * * % * * % * * & & & = % = $ = % % = % * % * % * % * * * % * % % = % = % = % = % % = ",
"* * * * * * * * = & = * * % = g.% = = % = = = % * * * * * * * * * * * * * * * = = * % = * * * * * * * * * * * * * * * * * * * * ",
"= = = = = = = = = = = = = - = = = = = = = = = = - * * - = * = * = = = = = = = = = = - = = = = = = = = = = * = = = = = * = = = = ",
"- - - - = - = - = - - - - - = - - = - = - = - - * - - - - = - - = = - - = - = = = = - - = = - - - - = = = - - * - - = - - = - - ",
"- - - - - - - - - - - - - - - - - - - - - - - - - - - - - - - - - - - - - - - - - - - - - - - - - - - - - - ; - - - ; - - - - - ",
"- ; - ; ; ; ; - - : - - - - f.f.f.f.d.- - - ; - ; - ; ; ; - - ; ; ; - - ; - - ; ; - ; - - : - ; ; - ; - ; - ; ; - ; ; - - ; ; - ",
"> ; ; ; ; ; ; ; - : : : : f.f.f.f.d.d.2.` ; ; ; ; ; ; ; ; ; ; ; ; ; ; ; ; ; ; ; ; ; ; ; - : ; ; ; ; ; ; ; ; ; > ; ; ; ; ; ; ; ; ",
"> : > : > _ ) i.f. .: > > d.f.f.f.f.d.r.| ) > > f.f.> > : : : : > > > > > > > > > > > > > > > > > > > > ; > ; > : : > > > ; : : ",
", > > , _ f.f.i.f.f.4.4.9.f.f.f.f.f.d.d.d.) ` =.f.f.d.r.> > > , d.d.@.> > > > > > > > > > > > > > > > > > > > > > , > > > , > > ",
", , , ) _ d.f.f.f.f.f.f.f.f.f.f.f.9.<...' ) f.f.f.f.f.f.2.] f.f.d.d.y.$., , > , , > , , > , , , : , , , > , , , > , , > , , , , ",
", 1 ) ) f.f.f.f.f.f.d.d.d.f.f.@.>.<.<.@.' ) %.f.f.f.f.f.4._ f.f.d.d.f.8._ , , , < , , < , , , , , , , , , , , , , , , , < < , , ",
"1 1 d.) f.f.e.f.f.f.d.0.<.4.f.f.f.d.d.u.<. .o.f.f.f.f.f.4.f.f.f.d.d.d.f.) ) 1 1 1 1 < 1 1 1 1 1 1 1 1 1 1 1 1 1 1 1 1 1 1 1 < 1 ",
"1 1 f.d.f.d.d.f.f.f.f.*...4.f.f.f.d.d.d.f.8.O.#.e.f.d.u.f.f.f.f.f.d.0.f.f.) f.1 1 1 1 1 1 1 1 1 1 1 1 1 1 1 1 1 1 1 1 1 1 1 1 1 ",
"5 4 3 f.f.f.d.f.f.f.%.| %.f.f.f.f.f.f.f.f.d.6. .{ %.d.f.f.f.d.] X.o.| ) ) 4 2 2 3 3 1 3 4 4 2 4 5 4 2 2 4 1 4 4 2 1 2 2 2 2 2 2 ",
"5 5 3 =.e.f.d.d.d.8.| ] 2.f.f.f.f.f.f.f.d.d.o.' d.5 5 5 5 5 3 _ _ 5 5 4 5 5 4 5 5 5 4 5 4 5 4 5 5 4 5 5 5 5 5 5 5 5 5 3 5 5 5 5 ",
"8 7 7 { O.&.9.4.=.| _ _ *.f.d.f.f.f.f.d.d.' ) 5 5 3 5 3 3 5 5 3 5 5 5 5 5 5 5 5 5 5 7 3 5 7 5 5 7 3 5 5 5 5 3 7 5 7 3 7 5 5 5 g.",
"8 3 7 5 _ _ ) ) _ _ _ 7 7 f.@. .f.f._ 7 7 7 7 7 7 7 7 7 7 7 7 7 7 7 7 7 7 7 7 7 6 7 7 5 7 7 5 6 7 7 7 7 6 7 7 3 7 7 7 7 7 5 7 7 ",
"8 8 8 8 8 8 7 8 8 8 8 6 7 7 7 7 7 7 7 8 7 7 7 7 7 7 7 8 7 7 7 7 7 7 8 7 7 7 7 7 7 7 7 8 7 7 7 7 7 7 7 7 7 7 7 7 7 8 7 7 8 7 7 7 ",
"0 0 8 0 8 8 8 8 8 8 0 0 8 8 9 8 8 8 8 8 8 8 8 8 8 8 8 8 8 8 8 8 8 7 8 8 8 8 g.8 8 8 8 8 8 8 8 8 8 8 8 8 8 8 8 8 8 8 8 8 8 8 8 8 ",
"s 9 q 9 0 9 q 0 8 8 9 9 9 9 9 9 0 0 q q 0 w q 0 0 0 0 0 0 0 0 0 e 0 0 0 0 w 0 0 q 0 0 0 0 e 0 0 0 0 e w 0 0 0 0 0 w 0 0 0 w 0 0 ",
"x x s s s w w w y y w w p q q q w w e e e e w q w w q j e e w q e e e e e e e e w w w e e e e e e e e e e e e e e e e e e e e e ",
"x x m x k x j j x j j j x k k k j j j j j j j j j j j j h h h h j j j e j j j j e j k k k e j j j j j j j j f f j j j e j j e j ",
"V B B B b M M b m m m v x x M x m b v v b b v v b b v b v m m m v b b b m b v v b b b b M b b b m v b b v v b b v b b b M v m v ",
"A V V V V B M M M M M M M M m m M M M M B B N N N M M M M M M M M M M N M M M M N N N M M M N N M M M M M M M b M M N M M M M M ",
"A A A A A V A V V V V V M A A A V V V M V V V V V V V V M A M V V V V V V V V V V V V V V V V V V V V V V V V V V V V V V V V V ",
"S G S A A A A A A A A A A A A A A A A A A A A A A D C A A A A A A A A A A A A A A A A A A A A A A A A A A A A A A A A A A A A A ",
"G G G G G D F G D D D D D D D D D D F F D D D D D D A A A A D D D D D D A S F F X X D D F A F D D D D D D D D D F A D D D D D D ",
"H G G G G G G G D G G G G G D G G G G F F G F G G G G G G G S G F G G F S K & & X X X X G G G G G G D G G D D G G F G F F G F G ",
"L K K K K K G G G H H H H G H G G G G H G G H G G G G G H H G H H G H G S & & & & X X X X G G G H G G H G H H H G H G H G H G G ",
"I I P P L L L K H H H J H H H H H H J J J J J J K H G K K K K K H H H S & & & & % & X X X X K K H H J H J J J H J J H J J J J J ",
"Y I I I P P P P I J P J J I J J J U J J J Q Q J L L P P K P P K L L K & & & & & $ & & X X X X P H J P J J J P P J J J J J P P J ",
"Y Y U U U U I I U I I I U I I I U I U Q Q Q Q Q Q I I I I I P I I P & & $ $ $ & & & & X X X X I P U U P I I I I U U P U U J U U ",
"E E E Y U Y Y U U U U U U U U U U U Q Q Q Q Q Q Q Q U U U U U U I & & & $ $ & & & $ $ & X X X X U U U U U U U U U U U U U U U U ",
"W W E E E E Y E Y E E Y Y Y Y T Q Q Q Q Q Q Q Q Q Q Q Q R Y Y Y & & & & & X & & @ & & & X X X X O T T T T T T T T T T T T T T T ",
"~ ! ! ! ! E E W E E E E E E E E Q Q Q Q Q Q Q Q Q Q Q Q E W R $ & & & & & & & & & & & & & X X X X X E R E E R E R R E R R E W R ",
"^ ^ ~ ~ ~ ~ ! ~ ! ! ! ! ! ~ ! Q Q Q Q Q Q Q Q Q Q Q Q Q Q Q & & & & & & & & & & & & & & & $ X X X X W ! W W W W ! ! ! ! ! ! ! ! ",
"C ^ / ^ ^ ^ ^ ~ ~ ~ ~ ~ ~ ~ Q Q Q Q Q Q Q Q Q Q Q Q Q Q Q Q $ & & & & & & & & & & & & $ & & X X X X X ~ ~ ! ( ~ ~ ~ ~ ~ ~ ~ ~ ! ",
"C C C / / ^ / / / ^ ^ ^ ^ Q Q Q Q Q Q Q Q Q Q Q Q Q Q Q Q Q & & & & & & & & & & & & & & & & X X X X X X ( ( ~ ~ ^ ^ ^ ^ ( ~ ( ~ ",
"C C C C C / / / / / ( / Q Q Q Q Q Q Q Q Q Q Q Q Q Q Q Q Q Q Q & & X & & & & & & & & & & $ & $ X X X X X . ( ( Q / / / / ( ^ / D ",
"C C C C C C C ( ( ( ( / Q Q Q Q Q Q Q Q Q Q Q Q Q Q Q Q Q Q Q Q & & & & & 6 & & & & @ & & $ & X X X X X . Q Q Q Q ( ( ( ( C C C ",
"6 C C C C C C C C ( ( Q Q Q Q 6 Q Q Q Q Q Q Q Q Q Q Q Q Q Q Q Q Q & & & 6 7 4 & & & & & & & & & X X X X X X = Q Q Q ( C C C C C ",
"6 6 C C C C C C Z Z Q Q Q Q 6 6 Q Q Q Q Q Q Q Q Q Q Q Q Q Q Q Q Q & & & 6 6 6 & & & & & $ $ & & & X X X X X X Q Q Q C C C C C 6 ",
"6 6 C C C C C C C Q Q Q Q Q 6 6 Q Q Q Q Q Q Q Q Q Q Q Q Q Q 6 6 Q Q Q & 6 6 4 & & & $ & $ $ & & & X X X X X X & Q C C C C C C 6 ",
"6 6 C C C C C C C Q Q Q Q 6 6 6 6 Q Q Q Q Q Q Q Q Q Q Q Q Q 6 6 Q Q Q 4 6 6 6 6 & & & % $ & & & & & X X X X X X % C C C C C C 6 ",
"6 6 6 C C C C C Q Q Q Q Q 6 6 6 6 Q Q Q Q Q Q Q Q Q Q Q Q Q 6 6 Q Q Q 7 6 6 6 6 & & & % & & & & & & X X X X X C C C C C C C 6 6 ",
"6 6 6 6 C C C 6 6 Q Q Q 6 6 6 6 6 Q Q Q 6 6 Q Q Q Q Q Q Q 6 6 6 Q Q 6 6 6 6 6 6 % & 7 % $ & & & 6 6 & X X X 6 C C C C C C C 6 6 ",
"6 6 6 6 C C C 6 6 Q Q 6 6 6 6 6 6 Q Q 6 6 6 Q Q Q 6 Q Q 6 6 6 6 6 Q 6 6 6 6 6 6 6 6 6 6 $ & $ 6 6 6 6 C C C 6 6 C C C C C 6 6 6 ",
"6 6 6 6 C C 6 6 6 6 Q 6 6 6 6 6 6 6 6 6 6 6 6 Q 6 6 Q Q 6 6 6 6 6 Q 6 6 6 6 6 6 6 6 6 6 & $ 6 6 6 6 6 C C 6 6 6 C C 6 6 C 6 6 6 ",
"6 6 6 6 6 6 6 6 6 6 6 6 6 6 6 6 6 6 6 6 6 6 6 6 6 6 6 6 6 6 6 6 6 6 6 6 6 6 6 6 6 6 6 6 % 7 6 6 6 6 6 6 6 6 6 6 6 6 6 6 6 6 6 6 "
};
