/* XPM */
static char *_02946872ec84195a1da3fec5ae304efzbJ1DHzQY1Hvtzu4[] = {
/* columns rows colors chars-per-pixel */
"64 64 16 1 ",
"  c #FF835A",
". c #FF8B5C",
"X c #FF945E",
"o c #FF9C60",
"O c #FFA362",
"+ c #FFAB63",
"@ c #FFB265",
"# c #FFB967",
"$ c #FFC069",
"% c #FFC76B",
"& c #FFCE6C",
"* c #FFD46E",
"= c #FFDA70",
"- c #FFE172",
"; c #FFE773",
": c #FFED75",
/* pixels */
"::::::::::::::::::::::::::::::::::::::::::::::::::::::::::::::::",
"::::::::::::::::::::::::::::::::::::::::::::::::::::::::::::::::",
"::::::::::::::::::::::::::::::::::::::::::::::::::::::::::::::::",
"::::::::::::::::::::::::::::::::::::::::::::::::::::::::::::::::",
"::::::::::::::::::::::::::::::::::::::::::::::::::::::::::::::::",
"::::::::::::::::::::::::::::::::::::::::::::::::::::::::::::::::",
"::::::::::::::::::::::::::::::::::::::::::::::::::::::::::::::::",
"::::::::::::::::::::::::::::::::::::::::::::::::::::::::::::::::",
"::::::::::::::::::::::::::::::::::::::::::::::::::::::::::::::::",
"::::::::::::::::::::::::::::::::::::::::::::::::::::::::::::::::",
"::::::::::::::::::::::::::::::::::::::::::::::::::::::::::::::::",
"::::::::::::::::::::::::::::::::::::::::::::::::::::::::::::::::",
"::::::::::::::::::::::::::::::::::::::::::::::::::::::::::::::::",
"::::::::::::::::::::::::::::::::::::::::::::::::::::::::::::::::",
":::::::::::::::::-     *:::::::::::::::::$    -:::::::::::::::::",
":::::::::::::::::-     X:::::::::::::::::$    -:::::::::::::::::",
":::::::::::::::::-      #::::::::::::::::$    -:::::::::::::::::",
":::::::::::::::::-       =:::::::::::::::$    -:::::::::::::::::",
":::::::::::::::::-       X:::::::::::::::$    -:::::::::::::::::",
":::::::::::::::::-        $::::::::::::::$    -:::::::::::::::::",
":::::::::::::::::-         =:::::::::::::$    -:::::::::::::::::",
":::::::::::::::::-         o:::::::::::::$    -:::::::::::::::::",
":::::::::::::::::-    @X    $::::::::::::$    -:::::::::::::::::",
":::::::::::::::::-    @=     -:::::::::::$    -:::::::::::::::::",
":::::::::::::::::-    @:#    o:::::::::::$    -:::::::::::::::::",
":::::::::::::::::-    @::X    $::::::::::$    -:::::::::::::::::",
":::::::::::::::::-    @::*     -:::::::::$    -:::::::::::::::::",
":::::::::::::::::-    @:::#    O:::::::::$    -:::::::::::::::::",
":::::::::::::::::-    @:::;X    $::::::::$    -:::::::::::::::::",
":::::::::::::::::-    @::::*    .-:::::::$    -:::::::::::::::::",
":::::::::::::::::-    @:::::@    O:::::::$    -:::::::::::::::::",
":::::::::::::::::-    @:::::;X    %::::::$    -:::::::::::::::::",
":::::::::::::::::-    @::::::&    .-:::::$    -:::::::::::::::::",
":::::::::::::::::-    @:::::::+    +:::::$    -:::::::::::::::::",
":::::::::::::::::-    @:::::::;.    &::::$    -:::::::::::::::::",
":::::::::::::::::-    @::::::::&    .;:::$    -:::::::::::::::::",
":::::::::::::::::-    @:::::::::+    +:::$    -:::::::::::::::::",
":::::::::::::::::-    @:::::::::-.    &::$    -:::::::::::::::::",
":::::::::::::::::-    @::::::::::%    X;:$    -:::::::::::::::::",
":::::::::::::::::-    @:::::::::::+    @:$    -:::::::::::::::::",
":::::::::::::::::-    @:::::::::::-.    &$    -:::::::::::::::::",
":::::::::::::::::-    @::::::::::::$    X#    -:::::::::::::::::",
":::::::::::::::::-    @:::::::::::::O    .    -:::::::::::::::::",
":::::::::::::::::-    @:::::::::::::-.        -:::::::::::::::::",
":::::::::::::::::-    @::::::::::::::$        -:::::::::::::::::",
":::::::::::::::::-    @:::::::::::::::o       -:::::::::::::::::",
":::::::::::::::::-    @:::::::::::::::-       -:::::::::::::::::",
":::::::::::::::::-    @::::::::::::::::$      -:::::::::::::::::",
":::::::::::::::::-    @:::::::::::::::::o     -:::::::::::::::::",
":::::::::::::::::-    @:::::::::::::::::=     -:::::::::::::::::",
"::::::::::::::::::::::::::::::::::::::::::::::::::::::::::::::::",
"::::::::::::::::::::::::::::::::::::::::::::::::::::::::::::::::",
"::::::::::::::::::::::::::::::::::::::::::::::::::::::::::::::::",
"::::::::::::::::::::::::::::::::::::::::::::::::::::::::::::::::",
"::::::::::::::::::::::::::::::::::::::::::::::::::::::::::::::::",
"::::::::::::::::::::::::::::::::::::::::::::::::::::::::::::::::",
"::::::::::::::::::::::::::::::::::::::::::::::::::::::::::::::::",
"::::::::::::::::::::::::::::::::::::::::::::::::::::::::::::::::",
"::::::::::::::::::::::::::::::::::::::::::::::::::::::::::::::::",
"::::::::::::::::::::::::::::::::::::::::::::::::::::::::::::::::",
"::::::::::::::::::::::::::::::::::::::::::::::::::::::::::::::::",
"::::::::::::::::::::::::::::::::::::::::::::::::::::::::::::::::",
"::::::::::::::::::::::::::::::::::::::::::::::::::::::::::::::::",
"::::::::::::::::::::::::::::::::::::::::::::::::::::::::::::::::"
};
