/* XPM */
static char *d8c78fd10c2d4baf917be5508513ce41P0TBdbx4oeLvNIKe[] = {
/* columns rows colors chars-per-pixel */
"64 64 16 1 ",
"  c #5C7AE9",
". c #6A7EE6",
"X c #7681E3",
"o c #E2A4BD",
"O c #EAA7BA",
"+ c #F2AAB6",
"@ c #8284DF",
"# c #8D88DC",
"$ c #988BD9",
"% c #B695CF",
"& c #BF98CB",
"* c #A28ED6",
"= c #AC92D2",
"- c #C89BC8",
"; c #D19EC4",
": c #D9A1C1",
/* pixels */
"++++++++++++++++++++++++++++++++++++++++++++++++++++++++++++++++",
"++++++++++++++++++++++++++++++++++++++++++++++++++++++++++++++++",
"++++++++++++++++++++++++++++++++++++++++++++++++++++++++++++++++",
"++++++++++++++++++++++++++++++++++++++++++++++++++++++++++++++++",
"++++++++++++++++++++++++++++++++++++++++++++++++++++++++++++++++",
"++++++++++++++++++++++++++++++++++++++++++++++++++++++++++++++++",
"++++++++++++++++++++++++++++++++++++++++++++++++++++++++++++++++",
"++++++++++++++++++++++++++++++++++++++++++++++++++++++++++++++++",
"++++++++++++++++++++++++++++++++++++++++++++++++++++++++++++++++",
"++++++++++++++++++++++++++++++++++++++++++++++++++++++++++++++++",
"++++++++++++++++++++++++++++++++++++++++++++++++++++++++++++++++",
"++++++++++++++++++++++++++++++++++++++++++++++++++++++++++++++++",
"++++++++++++++++++++++++++++++++++++++++++++++++++++++++++++++++",
"++++++++++++++++++++++++++O%%      @%&++++++++++++++++++++++++++",
"++++++++++++++++++++++++:$             =o+++++++++++++++++++++++",
"+++++++++++++++++++++++=                 %++++++++++++++++++++++",
"++++++++++++++++++++++#                   $+++++++++++++++++++++",
"+++++++++++++++++++++$     .%-+++++&%      *++++++++++++++++++++",
"++++++++++++++++++++-     %+++++++++++*     -+++++++++++++++++++",
"++++++++++++++++++++@    -+++++++++++++%    X+++++++++++++++++++",
"+++++++++++++++++++:    *+++++++++++++++#    ;++++++++++++++++++",
"+++++++++++++++++++&    -+++++++++++++++-    =++++++++++++++++++",
"+++++++++++++++++++%    o++++++++++++++++.   #++++++++++++++++++",
"+++++++++++++++++++%    o++++++++++++++++@   X++++++++++++++++++",
"+++++++++++++++++++%    -+++++++++++++++++++++++++++++++++++++++",
"+++++++++++++++++++-    @+++++++++++++++++++++++++++++++++++++++",
"++++++++++++++++++++.    @:+++++++++++++++++++++++++++++++++++++",
"++++++++++++++++++++%      #%+++++++++++++++++++++++++++++++++++",
"+++++++++++++++++++++@        X%%+++++++++++++++++++++++++++++++",
"+++++++++++++++++++++O@           .%&+++++++++++++++++++++++++++",
"+++++++++++++++++++++++%              $%++++++++++++++++++++++++",
"++++++++++++++++++++++++o=               =++++++++++++++++++++++",
"+++++++++++++++++++++++++++&=             X:++++++++++++++++++++",
"+++++++++++++++++++++++++++++++%%.          ;+++++++++++++++++++",
"+++++++++++++++++++++++++++++++++++%$       .:++++++++++++++++++",
"++++++++++++++++++++++++++++++++++++++%X     #++++++++++++++++++",
"++++++++++++++++++++++++++++++++++++++++=     :+++++++++++++++++",
"+++++++++++++++++++++++++++++++++++++++++$    %+++++++++++++++++",
"+++++++++++++++++++++++++++++++++++++++++:    $+++++++++++++++++",
"++++++++++++++++++#   X+++++++++++++++++++.   #+++++++++++++++++",
"++++++++++++++++++*    O++++++++++++++++++X   #+++++++++++++++++",
"++++++++++++++++++%    &++++++++++++++++++.   *+++++++++++++++++",
"++++++++++++++++++:    X+++++++++++++++++:    %+++++++++++++++++",
"+++++++++++++++++++@    %++++++++++++++++$    :+++++++++++++++++",
"+++++++++++++++++++&     %++++++++++++++%    #++++++++++++++++++",
"++++++++++++++++++++$     #:++++++++++O$     :++++++++++++++++++",
"++++++++++++++++++++OX      @%;+++++%=      %+++++++++++++++++++",
"+++++++++++++++++++++oX                    %++++++++++++++++++++",
"++++++++++++++++++++++O$                 .-+++++++++++++++++++++",
"++++++++++++++++++++++++;$              =O++++++++++++++++++++++",
"+++++++++++++++++++++++++++%%$      @%&+++++++++++++++++++++++++",
"++++++++++++++++++++++++++++++++++++++++++++++++++++++++++++++++",
"++++++++++++++++++++++++++++++++++++++++++++++++++++++++++++++++",
"++++++++++++++++++++++++++++++++++++++++++++++++++++++++++++++++",
"++++++++++++++++++++++++++++++++++++++++++++++++++++++++++++++++",
"++++++++++++++++++++++++++++++++++++++++++++++++++++++++++++++++",
"++++++++++++++++++++++++++++++++++++++++++++++++++++++++++++++++",
"++++++++++++++++++++++++++++++++++++++++++++++++++++++++++++++++",
"++++++++++++++++++++++++++++++++++++++++++++++++++++++++++++++++",
"++++++++++++++++++++++++++++++++++++++++++++++++++++++++++++++++",
"++++++++++++++++++++++++++++++++++++++++++++++++++++++++++++++++",
"++++++++++++++++++++++++++++++++++++++++++++++++++++++++++++++++",
"++++++++++++++++++++++++++++++++++++++++++++++++++++++++++++++++",
"++++++++++++++++++++++++++++++++++++++++++++++++++++++++++++++++"
};
