/* XPM */
static char *_07a6b86f5bf4733e041bc1a528c84e23tuSRBa5ifaZlGvB[] = {
/* columns rows colors chars-per-pixel */
"64 64 16 1 ",
"  c #FF835A",
". c #FA8865",
"X c #F68D70",
"o c #F1927A",
"O c #EC9783",
"+ c #E79C8C",
"@ c #DDA59E",
"# c #E2A095",
"$ c #D8A9A6",
"% c #D3AEAE",
"& c #CEB2B6",
"* c #C8B6BD",
"= c #BDBFCC",
"- c #C3BBC5",
"; c #B8C3D3",
": c #B2C7DA",
/* pixels */
"::::::::::::::::::::::::::::::::::::::::::::::::::::::::::::::::",
"::::::::::::::::::::::::::::::::::::::::::::::::::::::::::::::::",
"::::::::::::::::::::::::::::::::::::::::::::::::::::::::::::::::",
"::::::::::::::::::::::::::::::::::::::::::::::::::::::::::::::::",
"::::::::::::::::::::::::::::::::::::::::::::::::::::::::::::::::",
"::::::::::::::::::::::::::::::::::::::::::::::::::::::::::::::::",
"::::::::::::::::::::::::::::::::::::::::::::::::::::::::::::::::",
"::::::::::::::::::::::::::::::::::::::::::::::::::::::::::::::::",
"::::::::::::::::::::::::::::::::::::::::::::::::::::::::::::::::",
"::::::::::::::::::::::::::::::::::::::::::::::::::::::::::::::::",
"::::::::::::::::::::::::::::::::::::::::::::::::::::::::::::::::",
"::::::::::::::::::::::::::::::::::::::::::::::::::::::::::::::::",
"::::::::::::::::::::::::::::::::::::::::::::::::::::::::::::::::",
"::::::::::::::::::::::::::::::::::::::::::::::::::::::::::::::::",
":::::::::*    +::::::::::::::&     @::::::::::::::$    #::::::::",
"::::::::::.   .::::::::::::::@     .::::::::::::::+    &::::::::",
"::::::::::+    -:::::::::::::.      -:::::::::::::.   .;::::::::",
"::::::::::$    $::::::::::::-       $::::::::::::-    +:::::::::",
"::::::::::-    +::::::::::::$       +::::::::::::$    $:::::::::",
":::::::::::X   .::::::::::::+   @   .::::::::::::+    -:::::::::",
":::::::::::@    -:::::::::::.   -o   &:::::::::::.   .::::::::::",
":::::::::::&    $::::::::::&   .:@   @::::::::::-    #::::::::::",
":::::::::::;    +::::::::::@   @:&   o::::::::::$    &::::::::::",
"::::::::::::o   .::::::::::o   &:;    ;:::::::::@    ;::::::::::",
"::::::::::::$    -::::::::;    ;::O   &:::::::::o   o:::::::::::",
"::::::::::::-    $::::::::&   o:::$   +::::::::;    @:::::::::::",
":::::::::::::.   @::::::::+   @:::-   .::::::::&    *:::::::::::",
":::::::::::::+   o::::::::.   -::::.   -:::::::@   .::::::::::::",
":::::::::::::$    ;::::::-   .:::::+   $:::::::o   +::::::::::::",
":::::::::::::-    &::::::$   +:::::$   +::::::;    $::::::::::::",
"::::::::::::::o   @::::::+   $:::::;    ;:::::&    -::::::::::::",
"::::::::::::::@   o:::::;.   -::::::o   &:::::@   X:::::::::::::",
"::::::::::::::&    ;::::&   o:::::::@   @:::::o   @:::::::::::::",
"::::::::::::::;    &::::@   @:::::::&   o::::;    &:::::::::::::",
":::::::::::::::o   @::::o   &:::::::;    ;:::&    ;:::::::::::::",
":::::::::::::::$   o:::;    ;::::::::+   $:::@   o::::::::::::::",
":::::::::::::::-    ;::%   o:::::::::$   +:::o   $::::::::::::::",
"::::::::::::::::.   &::+   $:::::::::-   .::;    -::::::::::::::",
"::::::::::::::::+   @::.   -::::::::::.   -:&   .:::::::::::::::",
"::::::::::::::::$   o:-   .:::::::::::+   $:@   +:::::::::::::::",
"::::::::::::::::;    ;$   +:::::::::::&   o:o   $:::::::::::::::",
":::::::::::::::::o   &O   $:::::::::::;    =    =:::::::::::::::",
":::::::::::::::::@   #    ;::::::::::::o   #   o::::::::::::::::",
":::::::::::::::::&       o:::::::::::::@       @::::::::::::::::",
":::::::::::::::::;       @:::::::::::::&       &::::::::::::::::",
"::::::::::::::::::+      &::::::::::::::.      ;::::::::::::::::",
"::::::::::::::::::$      ;::::::::::::::+     O:::::::::::::::::",
"::::::::::::::::::-     +:::::::::::::::$     $:::::::::::::::::",
":::::::::::::::::::.    $:::::::::::::::-     -:::::::::::::::::",
":::::::::::::::::::+    -::::::::::::::::.   .::::::::::::::::::",
"::::::::::::::::::::::::::::::::::::::::::::::::::::::::::::::::",
"::::::::::::::::::::::::::::::::::::::::::::::::::::::::::::::::",
"::::::::::::::::::::::::::::::::::::::::::::::::::::::::::::::::",
"::::::::::::::::::::::::::::::::::::::::::::::::::::::::::::::::",
"::::::::::::::::::::::::::::::::::::::::::::::::::::::::::::::::",
"::::::::::::::::::::::::::::::::::::::::::::::::::::::::::::::::",
"::::::::::::::::::::::::::::::::::::::::::::::::::::::::::::::::",
"::::::::::::::::::::::::::::::::::::::::::::::::::::::::::::::::",
"::::::::::::::::::::::::::::::::::::::::::::::::::::::::::::::::",
"::::::::::::::::::::::::::::::::::::::::::::::::::::::::::::::::",
"::::::::::::::::::::::::::::::::::::::::::::::::::::::::::::::::",
"::::::::::::::::::::::::::::::::::::::::::::::::::::::::::::::::",
"::::::::::::::::::::::::::::::::::::::::::::::::::::::::::::::::",
"::::::::::::::::::::::::::::::::::::::::::::::::::::::::::::::::"
};
