/* XPM */
static char *_c742b2d770246edca4443eec9747ee8UMrgmBslzulmAaKk[] = {
/* columns rows colors chars-per-pixel */
"64 64 6 1 ",
"  c #435042",
". c #566656",
"X c #706F6F",
"o c #738673",
"O c #939393",
"+ c gray69",
/* pixels */
"XXXoooo...   +++++oo.. +++++++++XXX+++++++++++++++++++++++++++++",
"XX+oo..... OOOOOOOO.   OOOOOOOOO+X+OOOOOOOOOOOOOOOOOOOOOOOOOOOOO",
"X+oo.. .   OOOOOOOO. OOOOOOOOOOOOX+OOOOOOOOOOOOOOOOOOOOOOOOOOOOO",
"X+O..... OOOOOOOOOO  OOOOOOOOOOOOX+OOOOOOOOOOOOOOOOOOOOOOOOOOOOO",
"X+OOOO.  OOOOOOOOOOOOOOOOOOOOOOOOX+OOOOOOOOOOOOOOOOOOOOOOOOOOOOO",
"X+OOOO. OOOOOOOOOOOOOOOOOOOOOOOOOX+OOOOOOOOOOOOOOOOOOOOOOOOOOOOO",
"X+OOOOOOOOOOOOOOOOOOOOOOOOOOOOOOOX+OOOOOOOOOOOOOOOOOOOOOOOOOOOOO",
"X+OOOOOOOOOOOOOOOOOOOOOOOOOOOOOOOX+OOOOOOOOOOOOOOOOOOOOOOOOOOOOO",
"X+OOOOOOOOOOOOOOOOOOOOOOOOOOOOOOOX+OOOOOOOOOOOOOOOOOOOOOOOOOOOOO",
"X+OOOOOOOOOOOOOOOOOOOOOOOOOOOOOOOX+OOOOOOOOOOOOOOOOOOOOOOOOOOOOO",
"X+OOOOOOOOOOOOOOOOOOOOOOOOOOOOOOOX+OOOOOOOOOOOOOOOOOOOOOOOOOOOOO",
"X+OOOOOOOOOOOOOOOOOOOOOOOOOOOOOOOX+OOOOOOOOOOOOOOOOOOOOOOOOOOOOO",
"X+OOOOOOOOOOOOOOOOOOOOOOOOOOOOOOOX+OOOOOOOOOOOOOOOOOOOOOOOo OOOO",
"XXOOOOOOOOOOOOOOOOOOOOOOOOOOOOOOXXXOOOOOOOOOOO. OOOOOOOOO... OOO",
"XXXXXXXXXXXXXXXXXXXXXXXXXXXXXXXXXXXXXXXXXXXX  .  XXXXXXXXX.  XXX",
"++++++++++++++XXXX++++++++++++++++++.++oo.+.oo...XX+++++++++++++",
"OOOOOOOOOOOOOO+XX+OOOOOOOOOOOOOOOOOO..oo.o..o... .+OOOOOOOOOOOOO",
"OOOOOOOOOOOOOOOX+OOOOOOOOOOOOOOOOOOOOOoo..  o.o. X+OOOOOOOOOOOOO",
"OOOOOOOOOOOOOOOX+OOOOOOOOOOOOOOOOOOOOO...  ... .OX+OOOOOOOOOOOOO",
"OOOOOOOOOOOOOOOX+OOOOOOOOOOOOOOOOOOOOOOOOO.oo...OX+OOOOOOOOOOOOO",
"OOOOOOOOOOOOOOOX+OOOOOOOOOOOOOOOOOOOOOOOO..o  O.OX+OOOOOOOOOOOOO",
"OOOOOOOOOOOOOOOX+OOOOOOOOOOOOOOOOOOOOOOOO..  OO.OX+OOOOOOOOOOOOO",
"OOOOOOOOOOOOOOOX+OOOOOOOOOOOOOOOOOOOOOOOOO. OOO.OX+OOOOOOOOOOOOO",
"OOOOOOOOOOOOOOOX+OOOOOOOOOOOOOOOOOOOOOOOOOOOOOOOOX+OOOOOOOOOOOOO",
"OOOOOOOOOOOOOOOX+OOOOOOOOOOOOOOOOOOOOOOOOOOOOOOOOX+OOOOOOOOOOOOO",
"OOOOOOOOOOOOOOOX+OOOOOOOOOOOOOOOOOOOOOOOOOOOOOOOOX+OOOOOOOOOOOOO",
"OOOOOOOOOOOOOOOX+OOOOOOOOOOOOOOOOOOOOOOOOOOOOOOOOX+OOOOOOOOOOOOO",
"OOOOOOOOOOOOOOOX+OOOOOOOOOOOOOOOOOOOOOOOOOOOOOOOOX+OOOOOOOOOOOOO",
"OOOOOOOOOOOOOOOX+O.OOOOOOOOOOOOOOOOOOOOOOOOOOOOOOX+OOOOOOOOOOOOO",
"OO.OOOOOOOOOOOOX+.oO.OOOOOOOOOOOOOOOOOOOOOOOOOOOOXXOOO..OOOOOOOO",
"OOoo..OOOOOOOOOX+.o .. OOOOOOOOOOOOOOOOOOOOOOOOOOXXXO.o.O.OOOOOO",
"O...   .OOOOOOXXX....  OOOOOOOOOOOOOOOOOOOOOOOOOXXXXXX .oo OOOOO",
"XXXXXXX XXXXXXXXXX  XXXXXXXXXXXXXXXXXXXXXXXXXXXXXXXXXXX o.  XXXX",
"XX.  . +++++++++++++++++++++++XXXX++++++++++++++++.ooo...   ++++",
"XXoo.. OOOOOOOOOOOOOOOOOOOOOOO+XX+OOOOOOOOOOOOOOOOO.o..  OOOOOOO",
"X+Oo.OOOOOOOOOOOOOOOOOOOOOOOOOOOX+OOOOOOOOOOOOOOOOOO..  OOOOOOOO",
"X+Oo.OOOOOOOOOOOOOOOOOOOOOOOOOOOX+OOOOOOOOOOOOOOOOOOO.OOOOOOOOOO",
"X+OOOOOOOOOOOOOOOOOOOOOOOOOOOOOOX+OOOOOOOOOOOOOOOOOOOOOOOOOOOOOO",
"X+OOOOOOOOOOOOOOOOOOOOOOOOOOOOOOX+OOOOOOOOOOOOOOOOOOOOOOOOOOOOOO",
"X+OOOOOOOOOOOOOOOOOOOOOOOOOOOOOOX+OOOOOOOOOOOOOOOOOOOOOOOOOOOOOO",
"X+OOOOOOOOOOOOOOOOOOOOOOOOOOOOOOX+OOOOOOOOOOOOOOOOOOOOOOOOOOOOOO",
"X+OOOOOOOOOOOOOOOOOOOOOOOOOOOOOOX+OOOOOOOOOOOOOOOOOOOOOOOOOOOOOO",
"X+OOOOOOOOOOOOOOOOOOOOOOOOOOOOOOX+OOOOOOOOOOOOOOOOOOOOOOOOOOOOOO",
"X+OOOOOOOOOOOOOOOOOOOOOOOOOOOOOoX+OOOOOOOOOOOOOOOOOOOOOOOOOOOOOO",
"X+OOOOOOOOOOOOOOOOOOOOOOOOOOOOOoX+OOOOOOOOOOOOOOOOOOOOOOOOOOOOOO",
"X+OOOOOOOOOOOOOOOOOOOOOOOOOOOooo +OOOOOOOOOOOOOOOOOOOOOOOOOOOOOO",
"X+OOOOOOOOOOOOOOOOOOOOOOOOoOOo.. +OOOOOOOOOOOOOOOOOOOOOOOOOOo OO",
"X+OOOOOOOOOOOOOOOOOOO.OOOoo.O..   OOOOOOOOOOOOOOOOOOOOOOOOOO. OO",
"XXOOOOOOOOOOOOOOOO.oo.........   XOOOOOOOOOOOOOOOOOOOOOOOOO.   O",
"XXXXXXXXXXXXXXXXXXXXXXXX.       XXXXXXXXXXXXXXXXXXXXXXXXXXXXXXXX",
"++++++++++++++XXX+++++++++++++++++++++++++++oo.XXXX+++++++++++++",
"OOOOOOOOOOOOOO+XX+OOOOOOOOOOOOOOOOOOOOOOOOOO..  XX+OOOOOOOOOOOOO",
"OOOOOOOOOOOOOOOX+OOOOOOOOOOOOOOOOOOOOOOOOOOOO..  X+OOOOOOOOOOOOO",
"OOOOOOOOOOOOOOOX+OOOOOOOOOOOOOOOOOOOOOOOOOOOO  OOX+OOOOOOOOOOOOO",
"OOOOOOOOOOOOOOOX+OOOOOOOOOOOOOOOOOOOOOOOOOOOOOOOOX+OOOOOOOOOOOOO",
"OOOOOOOOOOOOOOOX+OOOOOOOOOOOOOOOOOOOOOOOOOOOOOOOOX+OOOOOOOOOOOOO",
"OOOOOOOOOOOOOOOX+OOOOOOOOOOOOOOOOOOOOOOOOOOOOOOOOX+OOOOOOOOOOOOO",
"OOOOOOOOOOOOOOOX+OOOOOOOOOOOOOOOOOOOOOOOOOOOOOOOOX+OOOOOOOOOOOOO",
"OOOOOOOOOOOOOOOX+OOOOOOOOOOOOOOOOOOOOOOOOOOOOOOOOX+OOOOOOOOOOOOO",
"OOOOOOOOOOOOOOOX+OOOOOOOOOOOOOOOOOOOOOOOOOOOOOOOOX+OOOOOOOOOOOOO",
"OOOOOOOOOOOOOOOX+OOOOOOOOOOOOOOOOOOOOOOOOOOOOOOOOX+OOOOOOOOOOOOO",
"OOOOOOOOOOOOOOOX+OOOOOOOOOOOOOOOOOOOOOOOOOOOOOOOOX+oOOOOOOOOOOOO",
"OOOOOOOOOOOOOOOX+OOo OOOOOOOOOOOOOOOOOOOOOOOOOOOOX+o O.. OOOOOOO",
"OOOOOOOOOOOOOOOX+O.  .OOOOOOOOOOOOOOOOOOOOOOOOOOOX  ...  OOOOOOO"
};
