/* XPM */
static char *_ca51bf51b8e4831a6d79b3059757fcf2pBGICZYxiTIJU3Y[] = {
/* columns rows colors chars-per-pixel */
"64 64 30 1 ",
"  c #353535",
". c gray28",
"X c #4E4D4D",
"o c gray31",
"O c #435042",
"+ c #445143",
"@ c #515151",
"# c #566656",
"$ c #576757",
"% c #676767",
"& c #686868",
"* c #6C6C6C",
"= c #706F6F",
"- c gray45",
"; c #7B7B7B",
": c #7E7E7E",
"> c #738673",
", c #748674",
"< c #FF835A",
"1 c #FFE252",
"2 c #818181",
"3 c #898989",
"4 c gray54",
"5 c #8D8E8D",
"6 c #929292",
"7 c #939393",
"8 c #979797",
"9 c #A2A2A2",
"0 c gray69",
"q c gray80",
/* pixels */
"===000000000000000>#>>O>>>>#>#O0===00000000000000000000000000000",
"==07777777777777777##O7#>####O770=077777777777777777777777777777",
"=07777777777777777777O77###OO7777=077777777777777777777777777777",
"=07777777777777777777777##O777777=077777777777777777777777777777",
"=077777777777777777777777OO777777=077777777777777777777777777777",
"=077777777777777777777777O7777777=077777777777777777777777777777",
"=07777777777777777777777777777777=077777777777777777777777777777",
"=07777777777777777777777777777<77=077777777777777777777777777777",
"=07777777777777777777777777777<<7=077777777777777777777777777777",
"=077777777777777777777777777777<<=077777777777777777777777777777",
"=077777777777777777777777777777<<<07777777777777777777777777>777",
"=077>>777777777777777777777777<1<<077777777777777777777777>###77",
"=07####7777777777777777777777<<1<<077777777777777777777777>###O7",
"==OO##77777777777777777777777<<1<<<<77777777777777777777#####OO7",
"============================<<11<1<<=====================OOOOOO=",
"00000000000000====0000000000<<11111<000>>>00#>>O===0000000000000",
"777777777777770==07777777777<<1111<<7777#7777##O#=07777777777777",
"777777777777777=077777777777<<1111<<77777777777##O07777777777777",
"777777777777777=07777777777qq<<<<<<qq7777777777##O07777777777777",
"777777777777777=07777777779qqqq9999q997777777777#=07777777777777",
"777777777777777=077777777@@9qqqqqqq99@ 777777777#=07777777777777",
"777777777777777=0777777777.@.9999999@  777777777#=07777777777777",
"777777777777777=07777777777. @@@@@@@ 777777777777=07777777777777",
"777777777777777=0777777777773..@@  %3777777777777=07777777777777",
"777777777777775-07777777777:%%%@@ %%%:77777777777=07777777777777",
"777777777777777*0777777777-%%%%.@ %%%%-7777777777=07777777777777",
"77777777777777>=0777777777%%%%%.@ %%%%%7777777777=07777777777777",
"77777777777777#=0777777777%%%%%.@ %%%%%7777777777=07777777777777",
"7777777777777##=0777777777%%%%%.@ %%%%%7777777777=07777777777777",
"7777777777777>O=0777777777*%%%%.@ %%%%%7777777777==7777777777777",
"777777777>77>#O#07777777777%%%%%@%%%%%77777777777===777777777777",
"7777777>>####OO#=77777777772%%%%%%%%%%7777777777======7777777777",
"=========OOOOOO=============XXXXXXXXX>#O========OOO=============",
"==000000000###000000000000003;XXXX>>>####OO000##>##O000000000000",
"==077777777777777777777777777:8XX;OO>>#####O777###OO777777777777",
"=0777777777777777777777777777773o>#O>######O777#OO77777777777777",
"=0777777777777777777777777777777=>#OOOO###O777777777777777777777",
"=0777777777777777777777777777777=>##OO#O##7777777777777777777777",
"=0777777777777777777777777777777=#>###O7O77777777777777777777777",
"=0777777777777777777777777777777=####O77777777777777777777777777",
"=0777777777777777777777777777777=>O##777777777777777777777777777",
"=0777777777777777777777777777777=>##O777777777777777777777777777",
"=0>77777777777777777777777777777=0#O7777777777777777777777777777",
"=0,77777777777777777777777777777=0777777777777777777777777777777",
"=>$+7777777777777777777777777777=0777777777777777777777777777777",
"=>##7777777777777777777777777777=0777777777777777777777777777777",
"=##>O77777#777777777777777777777=0777777777777777777777777777777",
"=>##O7#O7##+77777777777777777777=0777777777777777777777777777777",
"==###O######OO77777777777777777===777777777777777777777777777777",
"===OOOO==OO=====================================================",
"00000000000000===000000000000000000000000000000====0000000000000",
"777777777777770==0777777777777777777777777777770==07777777777777",
"777777777777777=077777777777777777777777777777777=07777777777777",
"777777777777777=077777777777777777777777777777777=07777777777777",
"777777777777777=077777777777777777777777777777777=07777777777777",
"777777777777777=077777777777777777777777777777777=07777777777777",
"777777777777777=077777777777777777777777777777777=07777777777777",
"777777777777777=07777777777777777777777777777777>=07777777777777",
"777777777777777=07777777777777777777777777777777#O07777777777777",
"777777777777777=07777777777777777777777777777777O=07777777777777",
"777777777777777=07777777777777777777777777777>7#O=07777777777777",
"777777777777777=0777777777777777777777777777###>O=#7777777777777",
"777777777777777=07777777777777777777777>77777>>##O#O777777777777",
"777777777777777=0777777777777777777777##O7>##O###O#O777777777777"
};
