/* XPM */
static char *fc59f62afa034f42b6dd0a672ead045480gR9k6zy4Qxtgiu[] = {
/* columns rows colors chars-per-pixel */
"64 64 16 1 ",
"  c #3D3831",
". c #423C32",
"X c #463F36",
"o c #4E4436",
"O c #484239",
"+ c #4E463B",
"@ c #524A3F",
"# c #5C503F",
"$ c #594F42",
"% c #435042",
"& c #695D4D",
"* c #566656",
"= c #706F6F",
"- c #738673",
"; c #939393",
": c gray69",
/* pixels */
"===----***%%%:::::--**%:::::::::===:::::::::::::::::::::::::::::",
"==:--*****%;;;;;;;;*%%%;;;;;;;;;:=:;;;;;;;;;;;;;;;;;;;;;;;;;;;;;",
"=:--**%*%%%;;;;;;;;*%;;;;;;;;;;;;=:;;;;;;;;;;;;;;;;;;;;;;;;;;;;;",
"=:;*****%;;;;;;;;;;%%;;;;;;;;;;;;=:;;;;;;;;;;;;;;;;;;;;;;;;;;;;;",
"=:;;;;*%%;;;;;;;;;;;;;;;;;;;;;;;;=:;;;;;;;;;;;;;;;;;;;;;;;;;;;;;",
"=:;;;;*%;;;;;;;;;;;;;;;;;;;;;;;;;=:;;;;;;;;;;;;;;;;;;;;;;;;;;;;;",
"=:;;;;;;;;;;;;;;;;;;;;;;;;;;;;;;;=:;;;;;;;;;;;;;;;;;;;;;;;;;;;;;",
"=:;;;;;;;;;;;;;;;;;;;;;;;;;;;;;;;=:;;;;;;;;;;;;;;;;;;;;;;;;;;;;;",
"=:;;;;;;;;;;;;;;;;;;;;;-*;;;;;;;;=:;;;;;;;;;;;;;;;;;;;;;;;;;;;;;",
"=:;;;;;;;;;;;;;;;;;;;;--*-%;         ;;;;;;;;;;;;;;;;;;;;;;;;;;;",
"=:;;;;;;;;;;;;;;;;;;;*-***%  X$$$o..    ;;;;;;;;;;;;;;;;;;;;;;;;",
"=:;;;;;;;;;;;;;;;;;;;***%   X$$oooo. XXXo  ;*;;;;;;;;;;;;;;;;;;;",
"=:;;;;;;;;;;;;;;;;;*;%% *.. X$$oooo. XXX$o *%-;;;;;;;;;;;;-%;;;;",
"==;;;;;;;;;;;;;;;;-**% ooo. X$ooooo. $$Xo$$%%**%;;;;;;;;;***%;;;",
"===============---**% o$oo. $$oo##ooO&oXoo$$o-%%%=========*%%===",
"::::::::::---*%-**-*%$oooo+ $ooo##ooO&&+oo$$$-***==:::::::::::::",
";;;;;;;;;;-***%%****%$ooo#+ $oo###ooO&&+##$o$ -  *:;;;;;;;;;;;;;",
";;;;;;;;;;;;*-***-%$$$o###+ $o####ooO&+###&#$ X$  :;;;;;;;;;;;;;",
";;;;;;;;;;;;;*-*-*%$X$+###+ $o####ooO&+##&&#o X$$  ;;;;;;;;;;;;;",
";;;;;;;;;;;;**%o-*%$.&+#### $o###&.oO&+##&##o @&$$ ;;;;;;;;;;;;;",
";;;;;;;;;;;;%%%o-*%$+&+###+ $o###&.oO&+##&##o @&&o  ;;;;;;;;;;;;",
";;;;;;;;;;;* $Xo*% $+&+###+ $o###&.oO&+##&&#o @&&o$  ;;;;;;;;;;;",
";;;;;;;;;;***$Xo*% $o$.###+ $o###@ooO&+##&&#o @&&#$o ;;;;;;;;;;;",
";;;;;;;;;;;*%$.o.% $o$.###+ $o#&++ooO&+##&&#o @#&#$$ ;;;;;;;;;;;",
";;;;;;;;;;; o..o.#O$oo+###+ $o#&++ooO&+##&&#o @#&#o$  ;;;;;;;;;;",
";;;;;;;;;;; X..o.# $oo####+ $o#&++ooO&+##&&#o @#&#ooo ;;;;;;;;;;",
";;;;;;;;;;; Xo.o.# $o###### $o#&++ooO&####&#o &#&#ooo ;;;;;;;;;;",
";;;;;;;;;; $Xooo.# $+###### $o#&+#ooO&####&#o &#&#oooo ;;;;;;;;;",
";;;;;;;;;; $.ooo.o $+###### $o#&+#ooO&####&#o &#&#oooo ;;;;;;;;;",
";;*;;;;;;; $.ooo.o $+###### $o#&+#ooO&######o &#&#oo$o *;;;;;;;;",
";;--**;;;; X.ooo.#O#+###### $o#&+#ooO&######o &###oo$o *;*;;;;;;",
";***%%%*;; $.ooo.#O######## $##&+#ooO&######o &#####$o *--%;;;;;",
"=======%== $.oooo#O#######+ $##&+#ooO&######o &#####$o %-*%%====",
"==*%%*%::: $ooooo#O#######+ $##&+#ooO&######o &#####oo **%%%::::",
"==--**%;;; $ooooo#O#######+ $##&+#ooO&######o &######o %%;;;;;;;",
"=:;-*;;;;; $ooooo#O#######+ $##&+#ooO&######o &####### %;;;;;;;;",
"=:;-*;;;;; $ooooo#O&##&###+ $##&+#ooO&######o &####### ;;;;;;;;;",
"=:;;;;;;;; $o   o#O&##&###+ $#####ooO&######o &####### ;;;;;;;;;",
"=:;;;;;;;; $     #O&##&###+ $#####ooO&#&####o &#######O;;;;;;;;;",
"=:;;;;;;;; $     #O&##&###+ $#####ooO&#&####o &#######O;;;;;;;;;",
"=:;;;;;;;; $     #O###&###+ $#####ooO&#&###oo &#####&# ;;;;;;;;;",
"=:;;;;;;;; $o   o#O###&###+ $#####ooO&#&###oo &##&+#&+ ;;;;;;;;;",
"=:;;;;;;;; $oo$oo#O###&###+ $#####ooO&#&###oo &##&+#&+ ;;;;;;;;;",
"=:;;;;;;;; $oo$$o#O###&###+ $#####ooO&&&###oo &#####&+ ;;;;;;;;;",
"=:;;;;;;;; $oo$$o#O###&###+ $##&##ooO&&&###oo &#####&# ;;;;;;;;;",
"=:;;;;;;;; $oo$$o+O###&###+ $##&##ooO&&&###oo &#####&# ;;;;;;;;;",
"=:;;;;;;;; $ooo$o+O###&###+ $##&##ooO&@#&##oo &#####&# ;;;;;-%;;",
"=:;;;;;;;; $ooo$o#O###&###+ $##&##ooO&&+&##oo &###+#&# ;;;;;*%;;",
"==;;;;;;;; $ooo$o#O###&###+ $##&##ooO&&+&##oo &###@#&+ ;;;;*%%%;",
"========== $ooo$oo ###&###+ $##&##ooO&@+&##oo &###@#&+ =========",
":::::::::: $ooo$oo #######+ $##&##ooO&@#&##oo &###&#&+ :::::::::",
";;;;;;;;;; $ooo$oo #######+ $##&##ooO&@#&##oo &###&#&+ ;;;;;;;;;",
";;;;;;;;;; $ooo$oo ######++ $##&##ooO&@#&+#oo &###&#&+ ;;;;;;;;;",
";;;;;;;;;; $ooo$oo ######++ $##&##o.O&+#&+#oo &#####&+ ;;;;;;;;;",
";;;;;;;;;; $ooo$oo ######++ $##&##o.O&+#&+#oo &#####&+ ;;;;;;;;;",
";;;;;;;;;; $ooo$oo ######++ $##&##o.O&+#&+##o &##oo#&+ ;;;;;;;;;",
";;;;;;;;;; $ooo$o. ######++ $##&##o.O&+#&+##o &##oo#&+ ;;;;;;;;;",
";;;;;;;;;; $ooo$o. ######++ $##&##o.O&+#&+##o &##oo#+. ;;;;;;;;;",
";;;;;;;;;; $ooo$o. ######++ $##&#+o.O&+#&+##o &##oo#+o ;;;;;;;;;",
";;;;;;;;;; $ooo$o. ######++ $##&#+o.O&+#&+#oo &##ooooo ;;;;;;;;;",
";;;;;;;;;; $ooooo. ######++ $##&#+o.O&+##+#oo &###oooo ;;;;;;;;;",
";;;;;;;;;; $oo.oo. ####+#++ $##&#+..O&###+ooo &###oooo ;;;;;;;;;",
";;;;;;;;;; $oo.o+. ###+++++ $####+..O&####ooo &###oooo *%;;;;;;;",
";;;;;;;;;; $oo.o.. ###+#+#+ $####+..O&+##+ooo &##ooooo %%;;;;;;;"
};
