/* XPM */
static char *_60ae8389b4f4a13f2fce74f9b38aa45nnSdd5Qtm1uvYdlf[] = {
/* columns rows colors chars-per-pixel */
"64 64 8 1 ",
"  c #414141",
". c #435042",
"X c #535353",
"o c #566656",
"O c #706F6F",
"+ c #738673",
"@ c #939393",
"# c gray69",
/* pixels */
"OOO++++ooo...#####++oo.#########OOO#############################",
"OO#++ooooo.@@@@@@@@o...@@@@@@@@@#O#@@@@@@@@@@@@@@@@@@@@@@@@@@@@@",
"O#++oo.o...@@@@@@@@o.@@@@@@@@@@@@O#@@@@@@@@@@@@@@@@@@@@@@@@@@@@@",
"O#@ooooo.@@@@@@@@@@..@@@@@@@@@@@@O#@@@@@@@@@@@@@@@@@@@@@@@@@@@@@",
"O#@@@@o..@@@@@@@@@@@@@@@@@@@@@@@@O#@@@@@@@@@@@@@@@@@@@@@@@@@@@@@",
"O#@@@@o.@@@@@@@@@@@@@@@@@@@@@@@@@O#@@@@@@@@@@@@@@@@@@@@@@@@@@@@@",
"O#@@@@@@@@@@@@@@@@@@@@@@@@@@@@@@@O#@@@@@@@@@@@@@@@@@@@@@@@@@@@@@",
"O#@@@@@@@@@@@@@@@@@@@@@@@@@@@@@@@O#@@@@@@@@@@@@@@@@@@@@@@@@@@@@@",
"O#@@@@@@@@@@@@@@@@@@@@@+o@@@@@@@@O#@@@@@@@@@@@@@@@@@@@@@@@@@@@@@",
"O#@@@@@@@@@@@@@@@@@@@@++o+.@         @@@@@@@@@@@@@@@@@@@@@@@@@@@",
"O#@@@@@@@@@@@@@@@@@@@o+ooo.             @@@@@@@@@@@@@@@@@@@@@@@@",
"O#@@@@@@@@@@@@@@@@@@@ooo.                  @o@@@@@@@@@@@@@@@@@@@",
"O#@@@@@@@@@@@@@@@@@o@.. o                  o.+@@@@@@@@@@@@+.@@@@",
"OO@@@@@@@@@@@@@@@@+oo.                     ..oo.@@@@@@@@@ooo.@@@",
"OOOOOOOOOOOOOOO+++oo.                        +...OOOOOOOOOo..OOO",
"##########+++o.+oo+o.                        +oooOO#############",
"@@@@@@@@@@+ooo..oooo.          XXXXXXXXX      +  o#@@@@@@@@@@@@@",
"@@@@@@@@@@@@o+ooo+.        XXXXXXXXXXXXXXXX       #@@@@@@@@@@@@@",
"@@@@@@@@@@@@@o+o+o.      XXXXXXXXXXXXXXXXXXXX      @@@@@@@@@@@@@",
"@@@@@@@@@@@@oo. +o.     XXXXXXXXXXXXXXXXXXXXXXX    @@@@@@@@@@@@@",
"@@@@@@@@@@@@... +o.    XXXXXXXXXXXXXXXXXXXXXXXXX    @@@@@@@@@@@@",
"@@@@@@@@@@@o    o.    XXXXXXXXXXXXXXXXXXXXXXXXXXX    @@@@@@@@@@@",
"@@@@@@@@@@ooo   o.   XXXXXXXXXXXXXXXXXXXXXXXXXXXXX   @@@@@@@@@@@",
"@@@@@@@@@@@o.    .  XXXXXXXXXXXXXXXXXXXXXXXXXXXXXX   @@@@@@@@@@@",
"@@@@@@@@@@@         XXXXXXXXXXXXXXXXXXXXXXXXXXXXXXX   @@@@@@@@@@",
"@@@@@@@@@@@        XXXXXXXXXXXXXXXXXXXXXXXXXXXXXXXXX  @@@@@@@@@@",
"@@@@@@@@@@@        XXXXXXXXXXXXXXXXXXXXXXXXXXXXXXXXX  @@@@@@@@@@",
"@@@@@@@@@@        XXXXXXXXXXXXXXXXXXXXXXXXXXXXXXXXXX   @@@@@@@@@",
"@@@@@@@@@@        XXXXXXXXXXXXXXXXXXXXXXXXXXXXXXXXXXX  @@@@@@@@@",
"@@o@@@@@@@        XXXXXXXXXXXXXXXXXXXXXXXXXXXXXXXXXXX  o@@@@@@@@",
"@@++oo@@@@        XXXXXXXXXXXXXXXXXXXXXXXXXXXXXXXXXXX  o@o@@@@@@",
"@ooo...o@@        XXXXXXXXXXXXXXXXXXXXXXXXXXXXXXXXXXX  o++.@@@@@",
"OOOOOOO.OO        XXXXXXXXXXXXXXXXXXXXXXXXXXXXXXXXXXXX .+o..OOOO",
"OOo..o.###       XXXXXXXXXXXXXXXXXXXXXXXXXXXXXXXXXXXXX oo...####",
"OO++oo.@@@       XXXXXXXXXXXXXXXXXXXXXXXXXXXXXXXXXXXXX ..@@@@@@@",
"O#@+o@@@@@       XXXXXXXXXXXXXXXXXXXXXXXXXXXXXXXXXXXXX .@@@@@@@@",
"O#@+o@@@@@       XXXXXXXXXXXXXXXXXXXXXXXXXXXXXXXXXXXXX @@@@@@@@@",
"O#@@@@@@@@       XXXXXXXXXXXXXXXXXXXXXXXXXXXXXXXXXXXXX @@@@@@@@@",
"O#@@@@@@@@       XXXXXXXXXXXXXXXXXXXXXXXXXXXXXXXXXXXXX @@@@@@@@@",
"O#@@@@@@@@       XXXXXXXXXXXXXXXXXXXXXXXXXXXXXXXXXXXXX @@@@@@@@@",
"O#@@@@@@@@       XXXXXXXXXXXXXXXXXXXXXXXXXXXXXXXXXXXXX @@@@@@@@@",
"O#@@@@@@@@       XXXXXXXXXXXXXXXXXXXXXXXXXXXXXXXXXXXXX @@@@@@@@@",
"O#@@@@@@@@       XXXXXXXXXXXXXXXXXXXXXXXXXXXXXXXXXXXXX @@@@@@@@@",
"O#@@@@@@@@       XXXXXXXXXXXXXXXXXXXXXXXXXXXXXXXXXXXXX @@@@@@@@@",
"O#@@@@@@@@       XXXXXXXXXXXXXXXXXXXXXXXXXXXXXXXXXXXXX @@@@@@@@@",
"O#@@@@@@@@       XXXXXXXXXXXXXXXXXXXXXXXXXXXXXXXXXXXXX @@@@@@@@@",
"O#@@@@@@@@       XXXXXXXXXXXXXXXXXXXXXXXXXXXXXXXXXXXXX @@@@@+.@@",
"O#@@@@@@@@       XXXXXXXXXXXXXXXXXXXXXXXXXXXXXXXXXXXXX @@@@@o.@@",
"OO@@@@@@@@       XXXXXXXXXXXXXXXXXXXXXXXXXXXXXXXXXXXXX @@@@o...@",
"OOOOOOOOOO       XXXXXXXXXXXXXXXXXXXXXXXXXXXXXXXXXXXXX OOOOOOOOO",
"##########       XXXXXXXXXXXXXXXXXXXXXXXXXXXXXXXXXXXXX #########",
"@@@@@@@@@@       XXXXXXXXXXXXXXXXXXXXXXXXXXXXXXXXXXXXX @@@@@@@@@",
"@@@@@@@@@@       XXXXXXXXXXXXXXXXXXXXXXXXXXXXXXXXXXXXX @@@@@@@@@",
"@@@@@@@@@@       XXXXXXXXXXXXXXXXXXXXXXXXXXXXXXXXXXXXX @@@@@@@@@",
"@@@@@@@@@@       XXXXXXXXXXXXXXXXXXXXXXXXXXXXXXXXXXXXX @@@@@@@@@",
"@@@@@@@@@@       XXXXXXXXXXXXXXXXXXXXXXXXXXXXXXXXXXXXX @@@@@@@@@",
"@@@@@@@@@@       XXXXXXXXXXXXXXXXXXXXXXXXXXXXXXXXXXXXX @@@@@@@@@",
"@@@@@@@@@@       XXXXXXXXXXXXXXXXXXXXXXXXXXXXXXXXXXXXX @@@@@@@@@",
"@@@@@@@@@@       XXXXXXXXXXXXXXXXXXXXXXXXXXXXXXXXXXXXX @@@@@@@@@",
"@@@@@@@@@@       XXXXXXXXXXXXXXXXXXXXXXXXXXXXXXXXXXXXX @@@@@@@@@",
"@@@@@@@@@@       XXXXXXXXXXXXXXXXXXXXXXXXXXXXXXXXXXXXX @@@@@@@@@",
"@@@@@@@@@@       XXXXXXXXXXXXXXXXXXXXXXXXXXXXXXXXXXXXX @@@@@@@@@",
"@@@@@@@@@@       XXXXXXXXXXXXXXXXXXXXXXXXXXXXXXXXXXXXX o.@@@@@@@",
"@@@@@@@@@@       XXXXXXXXXXXXXXXXXXXXXXXXXXXXXXXXXXXXX ..@@@@@@@"
};
